<?xml version="1.0" standalone="no"?>
<!DOCTYPE svg PUBLIC "-//W3C//DTD SVG 20010904//EN"
 "http://www.w3.org/TR/2001/REC-SVG-20010904/DTD/svg10.dtd">
<svg version="1.0" xmlns="http://www.w3.org/2000/svg"
 width="800.000000pt" height="798.000000pt" viewBox="0 0 800.000000 798.000000"
 preserveAspectRatio="xMidYMid meet">

<g transform="translate(0.000000,798.000000) scale(0.100000,-0.100000)"
fill="#000000" stroke="none">
<path d="M3742 7458 c9 -7 5 -8 -13 -6 -14 3 -31 -2 -38 -9 -7 -7 -16 -11 -22
-8 -5 4 -9 1 -9 -6 0 -7 -3 -10 -6 -6 -10 10 -106 -78 -112 -104 -2 -7 -10
-18 -18 -22 -10 -6 -13 -16 -8 -29 4 -14 2 -18 -5 -14 -13 8 -13 2 -15 -111
-1 -46 2 -83 5 -83 4 0 10 -15 13 -34 4 -18 20 -53 37 -76 17 -23 25 -39 17
-34 -7 4 2 -8 21 -28 19 -20 40 -34 47 -31 8 3 17 -2 20 -11 3 -9 10 -13 15
-10 5 3 9 1 9 -5 0 -6 7 -8 15 -5 8 4 15 2 15 -3 0 -4 30 -10 67 -11 37 -2 71
-6 75 -8 15 -9 69 7 62 18 -5 7 0 9 14 6 12 -4 22 -3 22 0 0 4 14 15 31 24 17
10 27 12 22 5 -4 -6 13 8 38 33 24 25 45 47 45 50 0 3 10 24 22 48 24 44 48
194 35 214 -3 7 -8 24 -9 37 -2 14 -8 27 -14 29 -5 2 -8 8 -4 13 3 5 0 9 -6 9
-6 0 -8 5 -5 10 3 6 1 10 -4 10 -6 0 -11 5 -11 11 0 6 -14 22 -30 36 -17 13
-28 28 -25 33 2 4 -5 16 -17 26 -12 11 -18 13 -13 5 5 -9 3 -12 -6 -9 -8 3
-13 10 -12 16 2 7 -4 9 -14 5 -10 -4 -14 -2 -10 4 5 7 -1 9 -15 5 -13 -3 -19
-1 -15 5 4 6 -4 8 -21 6 -16 -3 -22 -1 -15 4 6 4 -28 8 -79 9 -57 1 -85 -2
-76 -8z m58 -79 c-55 -6 -55 -7 15 -6 39 1 80 -4 91 -11 30 -16 105 -103 98
-113 -3 -5 -1 -9 5 -9 6 0 7 -7 4 -17 -4 -10 -2 -14 4 -10 7 4 10 -26 9 -88 0
-51 -3 -92 -6 -90 -3 2 -11 -11 -18 -28 -10 -29 -10 -30 3 -13 8 11 15 15 15
9 0 -7 -17 -26 -37 -44 -21 -17 -32 -28 -25 -25 27 16 10 -4 -22 -24 -29 -17
-44 -20 -88 -15 -75 9 -131 31 -171 68 -40 37 -71 93 -63 113 3 8 1 14 -4 14
-5 0 -7 31 -5 70 8 145 108 250 219 231 26 -5 22 -7 -24 -12z m-179 -506 c13
-16 12 -17 -3 -4 -10 7 -18 15 -18 17 0 8 8 3 21 -13z"/>
<path d="M4394 7443 c-32 -4 -32 -5 -39 -77 -3 -40 -3 -84 0 -99 5 -18 3 -27
-5 -27 -8 0 -9 -10 -5 -29 3 -16 2 -32 -4 -35 -6 -4 -8 -20 -4 -36 4 -20 2
-30 -7 -30 -9 0 -10 -10 -6 -35 5 -23 3 -35 -4 -35 -8 0 -9 -11 -5 -30 4 -19
3 -30 -4 -30 -7 0 -9 -10 -5 -26 4 -16 3 -25 -3 -21 -5 3 -10 -10 -10 -28 -1
-19 -8 -42 -17 -50 -19 -19 -21 -29 -4 -19 7 5 9 2 5 -9 -4 -12 -2 -14 10 -10
12 5 14 3 8 -6 -6 -10 0 -12 25 -6 18 4 30 3 27 -2 -3 -5 36 -10 86 -11 74 -1
99 2 132 18 38 19 107 69 75 55 -8 -4 -5 2 8 12 16 13 21 24 16 38 -4 10 -3
16 2 13 5 -4 9 27 9 72 -1 89 -28 145 -75 156 -3 0 -22 8 -42 17 -21 10 -45
17 -53 17 -9 0 -13 5 -10 11 4 6 0 9 -11 7 -17 -3 -19 5 -21 55 -1 31 3 57 8
57 6 0 9 8 7 18 -2 12 5 18 27 20 24 2 27 0 15 -8 -11 -9 -7 -10 19 -5 26 6
32 4 26 -6 -6 -9 -3 -11 8 -6 9 3 22 0 29 -7 7 -7 19 -11 27 -8 8 3 11 0 7 -7
-10 -16 23 -14 39 3 8 7 11 16 8 20 -4 3 -1 6 6 6 7 0 10 4 7 9 -3 5 1 11 9
15 8 3 15 13 14 23 0 16 -1 16 -9 -2 -7 -17 -9 -17 -9 -2 -1 12 -9 17 -30 17
-17 0 -33 5 -36 10 -3 6 -17 7 -31 4 -15 -4 -24 -2 -24 5 0 8 -12 10 -36 5
-28 -5 -35 -4 -29 5 5 9 -2 11 -28 6 -21 -4 -37 -3 -41 4 -4 6 -10 10 -14 9
-4 0 -21 -3 -38 -5z m-27 -130 c-3 -10 -5 -4 -5 12 0 17 2 24 5 18 2 -7 2 -21
0 -30z m263 -188 c13 -14 21 -25 18 -25 -2 0 -15 11 -28 25 -13 14 -21 25 -18
25 2 0 15 -11 28 -25z m-170 -6 c-12 -8 -9 -9 11 -5 19 4 34 -2 59 -23 30 -25
34 -34 35 -79 1 -31 -3 -48 -9 -45 -5 4 -7 -1 -3 -11 8 -20 -37 -71 -53 -61
-6 3 -10 3 -10 -2 0 -4 -20 -7 -45 -5 -37 3 -45 8 -45 24 0 11 4 16 11 12 8
-5 9 5 4 34 -4 24 -2 42 4 46 6 4 8 20 4 36 -4 20 -1 30 7 30 6 0 10 6 7 13
-6 16 11 47 26 47 8 0 7 -4 -3 -11z m-7 -246 c-7 -2 -19 -2 -25 0 -7 3 -2 5
12 5 14 0 19 -2 13 -5z"/>
<path d="M3168 7368 c-2 -6 -18 -11 -36 -11 -18 0 -29 -4 -25 -10 4 -6 0 -8
-10 -4 -10 3 -17 2 -17 -4 0 -6 -9 -8 -20 -4 -12 4 -20 2 -20 -5 0 -7 -7 -10
-15 -7 -8 4 -17 2 -21 -4 -3 -6 -12 -8 -20 -5 -8 3 -14 1 -14 -5 0 -6 -7 -9
-15 -5 -8 3 -15 1 -15 -5 0 -6 -9 -8 -21 -4 -16 5 -19 4 -14 -6 6 -9 4 -11 -8
-6 -9 3 -17 1 -19 -4 -2 -6 -18 -11 -36 -11 -17 -1 -32 -5 -32 -10 0 -5 -4 -7
-9 -4 -16 10 -41 -5 -41 -25 0 -10 5 -19 11 -19 5 0 8 -4 5 -9 -4 -5 -1 -11 4
-13 9 -3 16 -27 19 -71 1 -5 6 -5 12 -1 8 4 9 -1 4 -16 -5 -16 -4 -20 5 -15 9
5 10 2 5 -14 -4 -13 -2 -21 5 -21 7 0 10 -7 6 -15 -3 -8 -1 -15 5 -15 6 0 9
-7 5 -15 -3 -8 -1 -15 5 -15 6 0 9 -7 5 -15 -3 -8 -1 -15 5 -15 6 0 9 -7 5
-15 -3 -8 0 -15 5 -15 6 0 9 -9 6 -20 -3 -11 -1 -20 5 -20 6 0 8 -7 4 -15 -3
-8 -1 -15 5 -15 6 0 9 -7 5 -15 -3 -8 -1 -15 5 -15 6 0 9 -7 5 -15 -3 -8 -1
-15 5 -15 6 0 9 -7 6 -15 -4 -8 -2 -17 4 -21 6 -3 7 -19 4 -36 -6 -23 -4 -29
5 -23 10 6 11 2 7 -16 -9 -34 2 -69 21 -69 13 0 13 2 -1 18 -24 26 -21 36 3
12 21 -21 40 -26 40 -11 0 5 11 12 25 15 14 4 30 17 36 29 l10 22 -5 -22 c-2
-13 0 -23 5 -23 15 0 10 40 -5 46 -13 5 -31 49 -27 67 1 5 -3 6 -9 2 -5 -3
-11 0 -12 7 0 7 -2 18 -2 23 -1 6 -5 16 -9 23 -5 7 -9 26 -9 42 -1 17 -5 27
-11 23 -6 -4 -8 2 -5 15 4 12 2 22 -3 22 -4 0 -5 7 -2 17 5 12 3 14 -7 8 -10
-6 -11 -2 -6 19 5 20 3 26 -5 21 -8 -5 -9 -1 -4 14 4 13 2 21 -5 21 -7 0 -10
7 -6 15 3 8 1 15 -5 15 -6 0 -9 6 -6 14 3 8 1 16 -4 18 -5 2 -11 15 -13 29 -1
13 -6 31 -10 38 -5 7 -1 18 10 27 11 9 13 12 5 8 -9 -5 -12 -3 -7 5 5 7 16 9
28 5 15 -4 18 -3 13 6 -5 9 -2 10 14 5 11 -3 21 -2 21 3 0 12 69 32 88 25 10
-4 13 -2 8 5 -5 8 1 12 19 12 26 0 47 -32 38 -57 -3 -7 0 -13 6 -13 6 0 8 -7
5 -15 -4 -8 -1 -15 6 -15 7 0 10 -7 6 -15 -3 -8 -1 -15 5 -15 6 0 9 -7 6 -15
-4 -8 -2 -17 4 -21 6 -3 8 -12 5 -20 -3 -8 -1 -14 5 -14 5 0 9 -6 8 -12 -1 -7
1 -20 4 -28 20 -47 36 -103 31 -111 -3 -5 0 -9 6 -9 7 0 9 -8 5 -21 -5 -15 -4
-19 4 -14 8 5 10 -1 5 -21 -5 -19 -4 -25 5 -20 8 5 11 -8 11 -43 0 -27 4 -53
10 -56 5 -3 23 1 39 10 17 8 38 16 48 18 25 4 43 16 43 30 0 6 -6 3 -12 -6
-11 -15 -13 -12 -12 20 0 45 -5 65 -16 58 -11 -7 -21 22 -14 40 4 8 1 15 -6
15 -7 0 -10 7 -6 16 4 9 2 13 -5 8 -8 -4 -9 1 -4 16 5 16 4 20 -5 15 -9 -5
-10 -2 -5 14 4 13 2 21 -5 21 -7 0 -10 7 -6 15 3 8 1 15 -5 15 -5 0 -9 6 -8
13 1 6 -1 19 -4 27 -20 47 -36 103 -31 111 3 5 0 9 -6 9 -7 0 -9 8 -5 21 5 16
4 19 -5 14 -9 -6 -10 1 -5 25 5 25 4 31 -5 25 -10 -6 -11 -1 -6 19 4 17 2 26
-5 26 -6 0 -9 9 -6 19 4 15 -2 22 -24 30 -19 7 -29 6 -31 -1z"/>
<path d="M4951 7310 c-5 -16 -12 -30 -15 -30 -3 0 -3 7 0 15 4 10 1 14 -7 11
-42 -13 -70 -16 -64 -6 3 5 -2 10 -13 10 -15 0 -22 -9 -26 -35 -12 -65 14 -95
70 -81 19 5 24 2 24 -11 0 -16 -2 -16 -11 -3 -8 11 -9 5 -4 -22 4 -27 2 -38
-6 -38 -7 0 -10 -3 -7 -6 7 -7 -24 -97 -40 -117 -7 -8 -9 -23 -5 -32 4 -13 3
-16 -6 -11 -8 5 -11 3 -10 -5 4 -22 -12 -79 -21 -79 -5 0 -6 -7 -3 -17 5 -12
3 -14 -7 -8 -10 6 -12 4 -7 -8 3 -10 2 -17 -3 -17 -6 0 -9 -3 -9 -7 3 -18 -2
-33 -16 -47 -13 -13 -13 -16 0 -28 33 -30 41 -34 54 -30 9 3 11 0 6 -8 -5 -9
-2 -10 14 -5 13 4 21 2 21 -5 0 -6 10 -8 26 -4 18 5 25 3 21 -3 -8 -12 40 -24
87 -21 26 1 23 2 -14 9 -42 7 -41 7 18 6 34 -1 62 1 62 4 0 6 33 20 50 22 3 0
16 12 30 25 14 14 18 22 10 18 -8 -4 -5 1 7 11 16 13 21 25 17 43 -4 18 -3 21
4 12 7 -11 11 -5 16 20 8 45 -3 105 -16 86 -7 -9 -8 -7 -5 10 3 12 0 22 -6 22
-6 0 -8 3 -4 6 9 10 -64 84 -90 90 -12 4 -21 9 -18 14 2 4 -7 12 -21 19 -19 8
-24 8 -18 0 4 -8 3 -9 -4 -5 -13 8 -16 45 -4 62 9 15 64 12 70 -4 2 -7 11 -12
19 -12 9 0 13 3 10 7 -4 3 7 16 23 28 16 12 27 25 23 28 -3 4 -1 7 5 7 7 0 12
5 12 10 0 6 -9 10 -20 10 -11 0 -20 3 -20 8 0 4 -12 8 -26 9 -14 0 -31 7 -38
13 -8 10 -8 11 3 5 11 -6 13 -2 7 19 -5 21 -4 26 6 20 10 -6 10 -4 -1 9 -7 9
-16 15 -20 12 -4 -2 -18 2 -32 9 -13 7 -30 11 -37 8 -6 -2 -12 1 -12 7 0 22
-18 10 -29 -19z m-74 -106 c-3 -3 -12 -4 -19 -1 -8 3 -5 6 6 6 11 1 17 -2 13
-5z m173 -253 c42 -42 42 -97 -1 -146 -18 -20 -38 -34 -45 -31 -8 3 -14 2 -14
-2 0 -4 -19 -7 -42 -6 -42 1 -43 2 -46 38 -2 20 1 36 7 36 6 0 7 7 4 17 -5 12
-3 14 7 8 10 -6 12 -4 7 8 -3 10 -2 17 3 17 5 0 7 7 4 15 -4 8 -1 15 5 15 6 0
8 7 5 15 -4 8 -1 15 5 15 6 0 8 6 5 13 -3 9 7 14 31 15 28 2 42 -4 65 -27z
m137 -93 c-3 -8 -6 -5 -6 6 -1 11 2 17 5 13 3 -3 4 -12 1 -19z"/>
<path d="M5595 7080 c3 -6 2 -10 -4 -10 -6 0 -15 -18 -21 -41 -6 -22 -20 -49
-31 -60 -10 -10 -16 -19 -13 -19 13 0 -67 -98 -148 -180 -92 -94 -137 -124
-173 -118 -12 3 -22 0 -22 -6 0 -23 -33 -86 -44 -86 -7 0 -9 -3 -6 -7 4 -3 -1
-12 -11 -20 -11 -10 -12 -12 -2 -8 8 4 6 -1 -4 -9 -11 -9 -16 -16 -11 -16 5 0
4 -5 -3 -12 -9 -9 -2 -18 33 -40 54 -33 65 -35 65 -7 0 11 5 17 10 14 6 -4 10
-3 9 2 -4 24 3 41 24 52 17 9 18 10 2 6 -14 -4 -17 -3 -9 5 12 12 74 -6 74
-22 0 -5 5 -6 10 -3 6 3 10 1 10 -6 0 -7 3 -9 6 -6 8 8 84 -33 84 -45 0 -5 5
-6 10 -3 6 3 10 2 10 -3 0 -5 6 -9 13 -9 16 0 67 -32 68 -44 1 -5 2 -15 3 -21
1 -7 -5 -19 -14 -26 -11 -10 -11 -11 -1 -6 9 5 7 -2 -5 -18 -10 -14 -22 -24
-26 -21 -4 2 -5 -4 -1 -13 5 -13 3 -15 -8 -9 -8 5 -5 -1 5 -13 21 -24 30 -29
21 -9 -4 6 0 4 8 -5 8 -10 17 -15 20 -11 4 3 7 1 7 -5 0 -16 53 -9 58 7 3 9 0
11 -9 7 -10 -5 -9 -3 1 6 8 7 16 20 18 28 2 8 10 21 19 28 9 6 13 12 9 12 -4
0 1 13 10 29 10 17 21 28 25 25 12 -7 -3 40 -19 58 -16 19 -9 33 28 66 10 9
10 11 2 7 -11 -6 -12 -3 -3 14 7 11 16 21 22 21 6 0 7 5 4 10 -3 6 -1 10 5 10
6 0 9 4 5 10 -3 5 3 18 14 29 11 11 17 22 14 25 -4 3 0 6 7 6 7 0 11 3 7 6 -8
9 21 64 34 64 6 0 7 5 4 10 -3 6 -1 10 5 10 6 0 8 5 5 10 -3 6 1 13 9 16 9 3
14 9 11 14 -2 4 5 17 16 28 11 12 16 22 12 22 -4 0 2 7 13 16 10 8 12 12 4 8
-8 -5 -4 6 10 23 14 17 28 29 31 27 4 -2 10 3 13 12 9 24 7 31 -4 14 -7 -10
-10 -11 -10 -2 0 7 -16 20 -35 29 -19 9 -31 21 -28 26 4 6 1 7 -7 2 -8 -5 -18
-1 -27 10 -7 11 -13 15 -13 9 0 -5 -4 -4 -8 2 -4 6 -33 22 -64 37 -32 14 -58
31 -58 37 0 6 -4 8 -10 5 -5 -3 -10 -1 -10 5 0 6 -4 8 -10 5 -5 -3 -10 -2 -10
3 0 6 -7 13 -16 16 -8 3 -12 2 -9 -4z m92 -137 c10 -12 12 -13 8 -3 -4 8 1 6
9 -4 9 -11 16 -16 16 -12 0 5 8 0 18 -11 9 -10 13 -12 8 -3 -6 9 -3 8 10 -4
13 -12 15 -20 7 -23 -7 -2 -9 -11 -6 -19 3 -7 -2 -17 -11 -20 -9 -3 -13 -10
-10 -15 3 -5 0 -9 -5 -9 -6 0 -10 -3 -10 -7 3 -20 -3 -32 -28 -57 -14 -14 -23
-29 -20 -32 8 -9 -21 -64 -34 -64 -6 0 -8 -4 -5 -8 3 -5 -3 -18 -14 -29 -10
-12 -16 -24 -13 -27 4 -3 1 -6 -5 -6 -7 0 -11 -3 -11 -7 4 -22 -4 -36 -28 -60
-16 -15 -22 -23 -14 -18 9 5 12 4 8 -2 -8 -13 -57 -14 -57 -1 0 5 -5 6 -11 2
-7 -4 -20 4 -31 17 -11 13 -16 18 -12 10 5 -9 -7 -6 -32 9 -35 21 -77 53 -47
36 7 -4 9 1 6 15 -4 16 -8 17 -14 7 -6 -9 -9 -9 -9 -1 0 7 6 16 14 20 7 4 40
32 72 62 32 30 50 49 39 42 -11 -7 0 6 25 30 25 23 39 39 31 34 -8 -4 5 17 29
49 23 31 47 56 52 56 5 0 7 4 4 9 -7 10 34 61 48 61 5 0 15 -8 23 -17z m-277
-156 c0 -2 -19 -21 -42 -42 l-43 -40 40 43 c36 39 45 47 45 39z"/>
<path d="M4682 6990 c0 -14 2 -19 5 -12 2 6 2 18 0 25 -3 6 -5 1 -5 -13z"/>
<path d="M2013 6834 c-13 -14 -27 -23 -33 -19 -5 3 -10 2 -10 -4 0 -5 -14 -20
-32 -32 -17 -13 -28 -17 -24 -10 7 10 4 11 -12 2 -12 -6 -24 -17 -28 -24 -6
-9 -4 -9 7 -2 8 6 0 -3 -18 -18 -31 -27 -49 -78 -21 -61 8 5 9 2 5 -10 -7 -18
21 -58 35 -50 5 3 6 9 4 13 -3 4 16 28 41 52 25 24 43 38 39 32 -6 -10 -1 -11
18 -3 23 8 29 6 48 -21 13 -17 22 -35 21 -40 -2 -5 1 -9 6 -9 14 0 82 -100 76
-110 -3 -5 6 -17 20 -26 14 -9 24 -19 21 -21 -2 -2 7 -16 20 -30 13 -14 21
-30 17 -36 -3 -5 -2 -7 4 -4 10 6 38 -40 35 -55 -1 -5 3 -8 9 -8 5 0 8 -4 5
-9 -3 -5 1 -12 10 -15 9 -3 14 -12 11 -19 -5 -13 11 -30 31 -35 7 -1 12 3 12
9 0 5 4 8 9 5 5 -3 12 1 15 10 4 9 9 14 13 11 3 -4 14 5 25 18 11 14 24 23 29
20 5 -4 9 -3 9 2 0 4 18 27 39 50 21 23 36 44 33 47 -3 3 0 6 7 6 7 0 9 5 6
10 -3 6 -2 10 4 10 6 0 7 7 4 17 -4 10 -2 14 4 10 10 -6 13 93 3 103 -3 3 -13
21 -22 42 -9 20 -31 44 -47 54 -17 10 -31 22 -31 26 0 4 -7 5 -15 2 -8 -4 -15
-2 -15 3 0 14 -123 10 -139 -5 -7 -7 -20 -11 -27 -8 -8 3 -14 1 -14 -5 0 -6
-4 -7 -10 -4 -5 3 -10 1 -10 -5 0 -6 -4 -8 -10 -5 -5 3 -10 1 -10 -4 0 -6 -4
-11 -10 -11 -12 0 -73 89 -73 107 0 7 -5 13 -10 13 -6 0 -8 3 -4 6 8 9 -25 44
-43 44 -13 0 -13 1 0 10 8 5 11 10 5 10 -5 0 -20 -12 -32 -26z m381 -235 c17
-17 25 -29 19 -25 -9 5 -11 2 -7 -8 3 -9 10 -13 15 -10 13 8 11 -63 -2 -89 -7
-12 -23 -33 -37 -47 -14 -14 -22 -19 -17 -11 6 11 4 13 -7 8 -10 -3 -24 3 -35
15 -10 12 -12 18 -5 14 18 -11 15 9 -5 25 -15 12 -16 12 -8 -1 16 -29 -10 5
-48 61 -20 30 -37 61 -37 67 0 15 37 35 50 27 6 -3 10 -1 10 6 0 25 81 2 114
-32z"/>
<path d="M2231 6594 c0 -11 3 -14 6 -6 3 7 2 16 -1 19 -3 4 -6 -2 -5 -13z"/>
<path d="M6114 6738 c-5 -7 -3 -8 6 -3 19 12 -38 -65 -69 -94 -14 -13 -19 -19
-11 -15 17 9 -45 -72 -63 -82 -7 -4 -1 6 13 22 l25 29 -27 -24 c-15 -13 -26
-27 -25 -32 1 -5 -37 -46 -84 -91 -47 -46 -63 -63 -35 -38 39 34 34 27 -19
-28 -66 -68 -94 -93 -64 -54 8 9 -2 2 -21 -18 -19 -19 -32 -36 -27 -38 4 -2 7
-10 7 -18 0 -9 4 -13 9 -10 5 4 20 -7 33 -22 13 -16 30 -26 37 -24 8 3 11 0 7
-7 -4 -6 -2 -11 3 -11 6 0 11 7 11 15 0 8 12 22 28 30 15 9 19 14 9 11 -10 -3
-15 -2 -12 4 3 5 18 9 33 9 42 -1 86 6 100 14 7 5 22 5 33 2 16 -5 19 -4 14 5
-6 9 1 10 24 5 18 -4 31 -3 31 3 0 6 10 10 23 10 12 0 42 5 65 11 29 8 55 8
77 2 19 -5 37 -6 41 -3 4 4 -2 -7 -15 -25 -12 -18 -27 -36 -34 -39 -7 -4 -3 3
8 17 l20 24 -22 -19 c-13 -10 -20 -22 -18 -26 3 -5 -17 -28 -43 -52 -26 -23
-39 -36 -27 -28 11 8 -2 -9 -30 -38 -49 -52 -63 -63 -49 -39 5 6 -10 -6 -32
-28 -35 -36 -37 -42 -24 -55 14 -14 14 -14 0 -5 -13 9 -13 8 -1 -7 7 -10 17
-16 21 -13 5 3 17 -5 27 -18 10 -13 24 -22 32 -19 9 3 11 0 6 -9 -5 -8 1 -5
13 5 24 21 30 34 9 20 -7 -5 -4 -1 6 9 11 9 15 17 11 17 -5 0 0 7 10 15 11 8
16 15 10 15 -5 1 9 17 31 37 22 20 31 30 20 23 -11 -7 12 19 50 56 39 38 59
60 45 50 -14 -11 31 36 98 103 83 82 122 127 118 137 -3 8 -10 13 -15 10 -5
-4 -21 8 -36 26 -15 18 -24 26 -20 18 4 -9 0 -7 -8 3 -15 18 -16 18 -27 -3
-15 -27 -70 -51 -100 -43 -17 4 -21 3 -16 -6 6 -9 -2 -11 -31 -6 -30 5 -35 4
-23 -5 12 -9 9 -11 -17 -6 -18 3 -35 2 -37 -3 -7 -10 -102 -26 -135 -22 -13 1
-28 -3 -32 -10 -6 -10 -13 -10 -36 1 -15 7 -32 12 -38 11 -5 -1 56 62 136 141
80 79 144 142 142 141 -3 -1 -22 18 -43 42 -21 24 -41 41 -44 38 -3 -4 -6 -1
-6 5 0 15 -17 15 -26 0z m106 -91 c0 -1 -44 -45 -97 -97 l-98 -95 95 98 c88
90 100 102 100 94z m286 -275 c-15 -15 -15 -15 -4 10 7 15 15 23 17 17 2 -6
-4 -18 -13 -27z m-516 -28 c0 -2 -11 -4 -25 -4 -14 0 -25 4 -25 9 0 4 11 6 25
3 14 -2 25 -6 25 -8z m287 -30 c-3 -3 -12 -4 -19 -1 -8 3 -5 6 6 6 11 1 17 -2
13 -5z"/>
<path d="M2328 6733 c6 -2 18 -2 25 0 6 3 1 5 -13 5 -14 0 -19 -2 -12 -5z"/>
<path d="M3800 6598 c-510 -36 -1055 -255 -1446 -581 -233 -194 -436 -423
-569 -643 -319 -523 -443 -1070 -381 -1677 47 -460 253 -964 537 -1317 171
-212 294 -333 499 -489 372 -284 863 -473 1327 -512 189 -16 503 -6 657 21
532 93 988 318 1373 676 248 231 477 551 604 846 152 352 210 608 225 988 16
428 -75 843 -271 1240 -31 63 -62 124 -68 135 -79 134 -200 301 -314 432 -129
148 -437 416 -551 480 -339 192 -536 274 -802 337 -238 57 -562 82 -820 64z
m640 -97 c607 -112 1110 -396 1500 -848 116 -133 175 -217 270 -380 108 -185
162 -306 223 -498 76 -238 104 -387 117 -639 16 -283 -17 -616 -80 -822 -67
-219 -143 -410 -212 -534 -85 -152 -182 -299 -252 -381 -17 -20 -49 -58 -71
-84 -106 -127 -335 -332 -475 -425 -36 -24 -76 -51 -90 -60 -65 -44 -295 -164
-376 -196 -126 -51 -306 -109 -394 -127 -289 -62 -290 -62 -580 -62 -256 0
-286 2 -432 28 -339 60 -612 161 -903 334 -277 165 -528 393 -725 658 -37 50
-75 104 -85 120 -10 17 -33 53 -51 80 -35 55 -132 242 -165 320 -72 170 -151
442 -169 589 -5 39 -14 107 -20 151 -14 98 -8 494 10 615 22 159 96 454 128
517 6 10 22 52 38 93 48 131 184 384 265 495 16 22 53 71 81 109 93 126 384
410 483 472 17 10 50 35 75 54 55 44 131 90 270 164 250 132 554 231 815 265
44 6 94 13 110 15 17 2 154 3 305 1 228 -2 295 -7 390 -24z"/>
<path d="M3657 6244 c-17 -3 -32 -15 -39 -30 -10 -22 -4 -39 51 -147 35 -67
79 -149 99 -182 l37 -60 6 -175 c9 -235 11 -1037 2 -1188 -5 -102 -9 -122 -22
-122 -20 0 -14 -3 -356 195 -315 183 -434 251 -529 305 -34 19 -73 43 -86 53
-14 9 -28 17 -32 17 -4 0 -62 33 -129 73 -134 79 -130 75 -245 275 -67 118
-117 182 -144 182 -33 0 -58 -33 -151 -195 -51 -88 -117 -203 -147 -255 -30
-52 -66 -114 -79 -138 -29 -49 -25 -85 10 -104 14 -8 96 -14 237 -19 224 -6
236 -8 285 -44 17 -12 73 -45 125 -75 108 -60 569 -325 705 -405 50 -29 140
-80 200 -115 129 -72 154 -93 140 -116 -6 -9 -64 -47 -130 -84 -66 -37 -173
-99 -238 -137 -65 -37 -162 -93 -215 -124 -53 -30 -227 -130 -387 -222 l-289
-167 -207 0 c-194 0 -208 -1 -233 -21 -39 -31 -37 -38 54 -194 13 -22 40 -69
60 -105 135 -239 174 -305 182 -308 4 -2 8 -10 8 -18 0 -24 38 -54 68 -54 39
0 55 20 162 202 50 86 101 165 113 176 21 19 158 101 375 224 57 32 156 89
220 127 329 194 630 363 656 368 l29 6 -7 -744 -8 -743 -41 -71 c-22 -38 -51
-88 -63 -110 -108 -196 -106 -188 -73 -229 l20 -26 348 0 c376 0 380 1 401 56
8 20 -6 52 -93 206 l-102 183 -3 738 c-3 831 -10 761 77 711 64 -37 345 -199
466 -269 55 -32 129 -75 165 -95 36 -20 81 -46 100 -57 19 -11 127 -73 240
-138 113 -65 215 -127 226 -137 21 -18 34 -41 104 -175 34 -64 88 -138 132
-180 l33 -33 33 20 c18 11 42 40 56 67 28 58 222 392 258 448 15 22 32 62 39
89 20 80 12 83 -238 88 -239 5 -226 1 -433 123 -148 87 -533 310 -675 391
-283 161 -370 213 -373 223 -8 23 37 54 211 146 21 11 75 42 120 69 45 28 100
59 122 71 45 24 682 390 705 405 87 56 94 58 315 62 227 4 255 10 255 54 0 34
-51 129 -286 533 -59 101 -92 130 -128 113 -26 -12 -44 -37 -172 -254 -72
-121 -78 -129 -137 -161 -34 -19 -145 -83 -247 -142 -102 -59 -216 -125 -255
-147 -38 -21 -77 -43 -85 -48 -21 -12 -409 -238 -493 -286 -107 -61 -116 -66
-127 -59 -6 4 -10 94 -10 234 0 209 2 229 18 235 42 14 219 117 299 173 115
81 267 214 298 261 14 20 37 54 51 76 85 126 117 391 67 546 -44 136 -112 234
-204 295 -36 25 -71 45 -77 45 -5 0 -29 9 -54 20 -41 18 -74 20 -479 24 -239
3 -447 2 -462 0z m416 -51 c-35 -2 -91 -2 -125 0 -35 2 -7 3 62 3 69 0 97 -1
63 -3z m-373 -7 c0 -2 -7 -6 -15 -10 -8 -3 -15 -1 -15 4 0 6 7 10 15 10 8 0
15 -2 15 -4z m783 -3 c-13 -2 -35 -2 -50 0 -16 2 -5 4 22 4 28 0 40 -2 28 -4z
m64 -9 c-3 -3 -12 -4 -19 -1 -8 3 -5 6 6 6 11 1 17 -2 13 -5z m60 -10 c-3 -3
-12 -4 -19 -1 -8 3 -5 6 6 6 11 1 17 -2 13 -5z m143 -99 c30 -30 52 -55 49
-55 -2 0 -29 25 -59 55 -30 30 -52 55 -49 55 2 0 29 -25 59 -55z m-980 -55
c11 -22 18 -40 15 -40 -2 0 -14 18 -25 40 -11 22 -18 40 -15 40 2 0 14 -18 25
-40z m1075 -71 c9 -17 15 -33 13 -35 -3 -2 -12 12 -21 31 -21 43 -13 47 8 4z
m-467 4 c-16 -2 -40 -2 -55 0 -16 2 -3 4 27 4 30 0 43 -2 28 -4z m128 -31 c21
-16 46 -37 54 -48 8 -10 1 -7 -15 7 -17 15 -46 36 -65 48 -19 11 -30 21 -24
21 6 0 29 -13 50 -28z m-676 -12 c6 -11 8 -20 6 -20 -3 0 -10 9 -16 20 -6 11
-8 20 -6 20 3 0 10 -9 16 -20z m611 -23 c77 -32 114 -109 113 -237 0 -72 -4
-93 -26 -136 -33 -63 -164 -196 -227 -230 -25 -13 -54 -30 -64 -37 -14 -10
-19 -9 -27 3 -11 17 -14 618 -3 646 5 15 18 16 102 11 53 -2 112 -11 132 -20z
m-581 -27 c6 -11 8 -20 6 -20 -3 0 -10 9 -16 20 -6 11 -8 20 -6 20 3 0 10 -9
16 -20z m728 -35 c-3 -3 -9 2 -12 12 -6 14 -5 15 5 6 7 -7 10 -15 7 -18z
m-711 -142 c-2 -27 -3 -5 -3 47 0 52 1 74 3 48 2 -27 2 -69 0 -95z m1010 105
c-3 -7 -5 -2 -5 12 0 14 2 19 5 13 2 -7 2 -19 0 -25z m-290 0 c-3 -8 -6 -5 -6
6 -1 11 2 17 5 13 3 -3 4 -12 1 -19z m10 -85 c-3 -10 -5 -2 -5 17 0 19 2 27 5
18 2 -10 2 -26 0 -35z m290 -20 c-2 -16 -4 -5 -4 22 0 28 2 40 4 28 2 -13 2
-35 0 -50z m0 -100 c-2 -16 -4 -5 -4 22 0 28 2 40 4 28 2 -13 2 -35 0 -50z
m-290 -45 c-3 -7 -5 -2 -5 12 0 14 2 19 5 13 2 -7 2 -19 0 -25z m280 -30 c-3
-8 -6 -5 -6 6 -1 11 2 17 5 13 3 -3 4 -12 1 -19z m-306 -31 c-10 -9 -11 -8 -5
6 3 10 9 15 12 12 3 -3 0 -11 -7 -18z m290 -14 c-12 -20 -14 -14 -5 12 4 9 9
14 11 11 3 -2 0 -13 -6 -23z m-321 -37 c0 -2 -8 -10 -17 -17 -16 -13 -17 -12
-4 4 13 16 21 21 21 13z m-40 -51 c-7 -9 -36 -34 -64 -57 -47 -38 -47 -36 9
15 60 57 78 70 55 42z m-2231 2 c-2 -1 -13 -9 -24 -17 -19 -14 -19 -14 -6 3 7
9 18 17 24 17 6 0 8 -1 6 -3z m3445 -22 c-9 -14 -18 -25 -21 -25 -5 0 5 18 20
38 17 22 18 13 1 -13z m47 8 c13 -16 12 -17 -3 -4 -10 7 -18 15 -18 17 0 8 8
3 21 -13z m-961 -27 c0 -2 -8 -10 -17 -17 -16 -13 -17 -12 -4 4 13 16 21 21
21 13z m-2600 -46 c-6 -11 -13 -20 -16 -20 -2 0 0 9 6 20 6 11 13 20 16 20 2
0 0 -9 -6 -20z m2561 -7 c-5 -10 -33 -40 -62 -68 l-53 -50 60 67 c64 72 70 77
55 51z m910 0 c-5 -10 -17 -27 -26 -38 -16 -19 -17 -19 -3 5 26 46 29 50 34
50 3 0 0 -8 -5 -17z m-3310 -48 l10 -20 -16 20 c-9 11 -21 29 -26 40 l-10 20
16 -20 c9 -11 21 -29 26 -40z m3484 -15 c9 -16 13 -30 11 -30 -3 0 -12 14 -21
30 -9 17 -13 30 -11 30 3 0 12 -13 21 -30z m-3695 -20 c-6 -11 -13 -20 -16
-20 -2 0 0 9 6 20 6 11 13 20 16 20 2 0 0 -9 -6 -20z m2135 10 c-3 -5 -12 -10
-18 -10 -7 0 -6 4 3 10 19 12 23 12 15 0z m1330 -20 c-9 -16 -18 -30 -21 -30
-2 0 2 14 11 30 9 17 18 30 21 30 2 0 -2 -13 -11 -30z m-3185 -70 c17 -30 25
-48 17 -40 -17 18 -74 120 -59 105 5 -5 24 -35 42 -65z m1775 50 c-3 -5 -12
-10 -18 -10 -7 0 -6 4 3 10 19 12 23 12 15 0z m-2085 -20 c-6 -11 -13 -20 -16
-20 -2 0 0 9 6 20 6 11 13 20 16 20 2 0 0 -9 -6 -20z m2047 4 c-3 -3 -12 -4
-19 -1 -8 3 -5 6 6 6 11 1 17 -2 13 -5z m463 3 c0 -2 -15 -16 -32 -33 l-33
-29 29 33 c28 30 36 37 36 29z m1260 -17 c6 -11 8 -20 6 -20 -3 0 -10 9 -16
20 -6 11 -8 20 -6 20 3 0 10 -9 16 -20z m-320 -30 c-6 -11 -13 -20 -16 -20 -2
0 0 9 6 20 6 11 13 20 16 20 2 0 0 -9 -6 -20z m350 -20 c6 -11 8 -20 6 -20 -3
0 -10 9 -16 20 -6 11 -8 20 -6 20 3 0 10 -9 16 -20z m-3845 -20 c-9 -16 -18
-30 -21 -30 -2 0 2 14 11 30 9 17 18 30 21 30 2 0 -2 -13 -11 -30z m2485 26
c0 -2 -8 -10 -17 -17 -16 -13 -17 -12 -4 4 13 16 21 21 21 13z m-40 -30 c0 -2
-8 -10 -17 -17 -16 -13 -17 -12 -4 4 13 16 21 21 21 13z m-2024 -38 l29 -33
-32 29 c-18 17 -33 31 -33 33 0 8 8 1 36 -29z m3464 -8 c11 -22 18 -40 15 -40
-2 0 -14 18 -25 40 -11 22 -18 40 -15 40 2 0 14 -18 25 -40z m-2083 -37 c-2
-16 -4 -5 -4 22 0 28 2 40 4 28 2 -13 2 -35 0 -50z m1653 64 c0 -2 -12 -14
-27 -28 l-28 -24 24 28 c23 25 31 32 31 24z m-60 -52 c0 -2 -10 -9 -22 -15
-22 -11 -22 -10 -4 4 21 17 26 19 26 11z m-2870 -41 c0 -2 -9 0 -20 6 -11 6
-20 13 -20 16 0 2 9 0 20 -6 11 -6 20 -13 20 -16z m1790 21 c0 -2 -10 -9 -22
-15 -22 -11 -22 -10 -4 4 21 17 26 19 26 11z m990 -30 c0 -2 -10 -9 -22 -15
-22 -11 -22 -10 -4 4 21 17 26 19 26 11z m-2710 -31 c0 -2 -9 0 -20 6 -11 6
-20 13 -20 16 0 2 9 0 20 -6 11 -6 20 -13 20 -16z m1650 21 c0 -2 -22 -16 -50
-30 -27 -14 -50 -23 -50 -20 0 2 21 16 48 29 53 28 52 28 52 21z m1710 -35
c11 -22 18 -40 15 -40 -2 0 -14 18 -25 40 -11 22 -18 40 -15 40 2 0 14 -18 25
-40z m-4049 13 c-5 -10 -17 -27 -26 -38 -16 -19 -17 -19 -3 5 26 46 29 50 34
50 3 0 0 -8 -5 -17z m3319 -18 c0 -2 -18 -14 -40 -25 -22 -11 -40 -18 -40 -15
0 2 17 13 38 24 42 23 42 23 42 16z m-2470 -71 c0 -2 -13 2 -30 11 -16 9 -30
18 -30 21 0 2 14 -2 30 -11 17 -9 30 -18 30 -21z m-872 -18 c12 -3 11 -4 -3
-3 -12 1 -20 10 -21 22 -1 14 0 15 3 3 2 -9 12 -19 21 -22z m2182 -48 l-5 -93
-3 79 c-3 70 1 106 10 106 2 0 1 -42 -2 -92z m1050 77 c0 -2 -10 -9 -22 -15
-22 -11 -22 -10 -4 4 21 17 26 19 26 11z m877 -27 c-3 -8 -6 -5 -6 6 -1 11 2
17 5 13 3 -3 4 -12 1 -19z m-3744 -15 c-13 -2 -35 -2 -50 0 -16 2 -5 4 22 4
28 0 40 -2 28 -4z m2797 2 c0 -2 -10 -9 -22 -15 -22 -11 -22 -10 -4 4 21 17
26 19 26 11z m755 -2 c-121 -7 -253 -7 -248 0 2 4 70 6 151 5 81 -1 125 -3 97
-5z m-3490 -13 c3 -6 -1 -7 -9 -4 -18 7 -21 14 -7 14 6 0 13 -4 16 -10z m545
-16 c0 -2 -9 0 -20 6 -11 6 -20 13 -20 16 0 2 9 0 20 -6 11 -6 20 -13 20 -16z
m2140 1 c0 -2 -10 -9 -22 -15 -22 -11 -22 -10 -4 4 21 17 26 19 26 11z m520 0
c0 -2 -10 -9 -22 -15 -22 -11 -22 -10 -4 4 21 17 26 19 26 11z m-3124 -36 c3
-6 -5 -3 -20 6 -14 10 -26 19 -26 22 0 7 39 -17 46 -28z m534 -5 c0 -2 -9 0
-20 6 -11 6 -20 13 -20 16 0 2 9 0 20 -6 11 -6 20 -13 20 -16z m2540 11 c0 -2
-10 -9 -22 -15 -22 -11 -22 -10 -4 4 21 17 26 19 26 11z m-540 -10 c0 -2 -10
-9 -22 -15 -22 -11 -22 -10 -4 4 21 17 26 19 26 11z m-2484 -21 c18 -14 18
-14 -6 -3 -31 14 -36 19 -24 19 6 0 19 -7 30 -16z m554 -20 c0 -2 -9 0 -20 6
-11 6 -20 13 -20 16 0 2 9 0 20 -6 11 -6 20 -13 20 -16z m1880 11 c0 -2 -10
-9 -22 -15 -22 -11 -22 -10 -4 4 21 17 26 19 26 11z m520 0 c0 -2 -10 -9 -22
-15 -22 -11 -22 -10 -4 4 21 17 26 19 26 11z m-2870 -41 c0 -2 -9 0 -20 6 -11
6 -20 13 -20 16 0 2 9 0 20 -6 11 -6 20 -13 20 -16z m540 -10 c0 -2 -9 0 -20
6 -11 6 -20 13 -20 16 0 2 9 0 20 -6 11 -6 20 -13 20 -16z m1740 11 c0 -2 -10
-9 -22 -15 -22 -11 -22 -10 -4 4 21 17 26 19 26 11z m520 0 c0 -2 -10 -9 -22
-15 -22 -11 -22 -10 -4 4 21 17 26 19 26 11z m-2750 -31 c0 -2 -9 0 -20 6 -11
6 -20 13 -20 16 0 2 9 0 20 -6 11 -6 20 -13 20 -16z m560 -20 c0 -2 -9 0 -20
6 -11 6 -20 13 -20 16 0 2 9 0 20 -6 11 -6 20 -13 20 -16z m1600 11 c0 -2 -10
-9 -22 -15 -22 -11 -22 -10 -4 4 21 17 26 19 26 11z m520 0 c0 -2 -10 -9 -22
-15 -22 -11 -22 -10 -4 4 21 17 26 19 26 11z m-2610 -31 c0 -2 -9 0 -20 6 -11
6 -20 13 -20 16 0 2 9 0 20 -6 11 -6 20 -13 20 -16z m2560 1 c0 -2 -10 -9 -22
-15 -22 -11 -22 -10 -4 4 21 17 26 19 26 11z m-540 -10 c0 -2 -10 -9 -22 -15
-22 -11 -22 -10 -4 4 21 17 26 19 26 11z m-1950 -31 c0 -2 -9 0 -20 6 -11 6
-20 13 -20 16 0 2 9 0 20 -6 11 -6 20 -13 20 -16z m540 -10 c0 -2 -9 0 -20 6
-11 6 -20 13 -20 16 0 2 9 0 20 -6 11 -6 20 -13 20 -16z m1880 11 c0 -2 -10
-9 -22 -15 -22 -11 -22 -10 -4 4 21 17 26 19 26 11z m-540 -10 c0 -2 -10 -9
-22 -15 -22 -11 -22 -10 -4 4 21 17 26 19 26 11z m-1810 -31 c0 -2 -9 0 -20 6
-11 6 -20 13 -20 16 0 2 9 0 20 -6 11 -6 20 -13 20 -16z m540 -10 c0 -2 -9 0
-20 6 -11 6 -20 13 -20 16 0 2 9 0 20 -6 11 -6 20 -13 20 -16z m1220 11 c0 -2
-10 -9 -22 -15 -22 -11 -22 -10 -4 4 21 17 26 19 26 11z m520 0 c0 -2 -10 -9
-22 -15 -22 -11 -22 -10 -4 4 21 17 26 19 26 11z m-2184 -56 c3 -6 -5 -3 -20
6 -14 10 -26 19 -26 22 0 7 39 -17 46 -28z m2134 26 c0 -2 -10 -9 -22 -15 -22
-11 -22 -10 -4 4 21 17 26 19 26 11z m-1581 -42 c2 -2 0 -3 -6 -3 -6 0 -21 9
-34 21 l-24 20 30 -17 c17 -10 32 -19 34 -21z m1041 32 c0 -2 -10 -9 -22 -15
-22 -11 -22 -10 -4 4 21 17 26 19 26 11z m470 -30 c0 -2 -10 -9 -22 -15 -22
-11 -22 -10 -4 4 21 17 26 19 26 11z m-1970 -41 c0 -2 -13 2 -30 11 -16 9 -30
18 -30 21 0 2 14 -2 30 -11 17 -9 30 -18 30 -21z m1430 31 c0 -2 -10 -9 -22
-15 -22 -11 -22 -10 -4 4 21 17 26 19 26 11z m-905 -33 c-3 -3 -11 0 -18 7 -9
10 -8 11 6 5 10 -3 15 -9 12 -12z m1375 3 c0 -2 -10 -9 -22 -15 -22 -11 -22
-10 -4 4 21 17 26 19 26 11z m-1310 -42 c0 -7 -39 17 -46 28 -3 6 5 3 20 -6
14 -10 26 -19 26 -22z m770 32 c0 -2 -10 -9 -22 -15 -22 -11 -22 -10 -4 4 21
17 26 19 26 11z m-1270 -41 c0 -2 -13 2 -30 11 -16 9 -30 18 -30 21 0 2 14 -2
30 -11 17 -9 30 -18 30 -21z m570 -30 c0 -2 -13 2 -30 11 -16 9 -30 18 -30 21
0 2 14 -2 30 -11 17 -9 30 -18 30 -21z m-520 0 c0 -2 -9 0 -20 6 -11 6 -20 13
-20 16 0 2 9 0 20 -6 11 -6 20 -13 20 -16z m1640 11 c0 -2 -10 -9 -22 -15 -22
-11 -22 -10 -4 4 21 17 26 19 26 11z m-1570 -51 c0 -2 -13 2 -30 11 -16 9 -30
18 -30 21 0 2 14 -2 30 -11 17 -9 30 -18 30 -21z m520 0 c0 -2 -9 0 -20 6 -11
6 -20 13 -20 16 0 2 9 0 20 -6 11 -6 20 -13 20 -16z m362 -14 c3 -16 1 -30 -4
-30 -4 0 -8 14 -8 30 0 17 2 30 4 30 2 0 6 -13 8 -30z m618 25 c0 -2 -13 -11
-30 -20 -38 -19 -40 -11 -2 9 31 17 32 18 32 11z m-890 -30 c0 -25 -23 -35
-35 -15 -3 6 1 7 9 4 11 -4 16 0 16 15 0 12 2 21 5 21 3 0 5 -11 5 -25z m320
1 c0 -2 -7 -7 -16 -10 -8 -3 -12 -2 -9 4 6 10 25 14 25 6z m500 -11 c0 -2 -10
-9 -22 -15 -22 -11 -22 -10 -4 4 21 17 26 19 26 11z m-50 -30 c0 -2 -18 -14
-40 -25 -22 -11 -40 -18 -40 -15 0 2 17 13 38 24 42 23 42 23 42 16z m-1190
-51 c0 -2 -9 0 -20 6 -11 6 -20 13 -20 16 0 2 9 0 20 -6 11 -6 20 -13 20 -16z
m1100 1 c0 -2 -10 -9 -22 -15 -22 -11 -22 -10 -4 4 21 17 26 19 26 11z m-1050
-31 c0 -2 -9 0 -20 6 -11 6 -20 13 -20 16 0 2 9 0 20 -6 11 -6 20 -13 20 -16z
m70 -40 c0 -2 -13 2 -30 11 -16 9 -30 18 -30 21 0 2 14 -2 30 -11 17 -9 30
-18 30 -21z m880 11 c0 -2 -13 -11 -30 -20 -38 -19 -40 -11 -2 9 31 17 32 18
32 11z m-790 -61 c0 -2 -9 0 -20 6 -11 6 -20 13 -20 16 0 2 9 0 20 -6 11 -6
20 -13 20 -16z m700 11 c0 -2 -10 -9 -22 -15 -22 -11 -22 -10 -4 4 21 17 26
19 26 11z m-646 -44 c14 -15 15 -21 4 -27 -7 -4 -10 -3 -5 1 4 5 0 17 -10 27
-9 10 -14 18 -11 18 3 0 13 -9 22 -19z m596 14 c0 -2 -10 -9 -22 -15 -22 -11
-22 -10 -4 4 21 17 26 19 26 11z m-610 -50 c0 -2 -10 -9 -22 -15 -22 -11 -22
-10 -4 4 21 17 26 19 26 11z m670 -41 c0 -2 -9 0 -20 6 -11 6 -20 13 -20 16 0
2 9 0 20 -6 11 -6 20 -13 20 -16z m-720 11 c0 -2 -13 -11 -30 -20 -38 -19 -40
-11 -2 9 31 17 32 18 32 11z m795 -53 c-3 -3 -11 0 -18 7 -9 10 -8 11 6 5 10
-3 15 -9 12 -12z m-915 -17 c0 -2 -13 -11 -30 -20 -38 -19 -40 -11 -2 9 31 17
32 18 32 11z m1030 -51 c0 -2 -9 0 -20 6 -11 6 -20 13 -20 16 0 2 9 0 20 -6
11 -6 20 -13 20 -16z m70 -40 c0 -2 -9 0 -20 6 -11 6 -20 13 -20 16 0 2 9 0
20 -6 11 -6 20 -13 20 -16z m-1240 11 c0 -2 -10 -9 -22 -15 -22 -11 -22 -10
-4 4 21 17 26 19 26 11z m747 -222 c-2 -38 -3 -7 -3 67 0 74 1 105 3 68 2 -38
2 -98 0 -135z m-270 155 c-3 -7 -5 -2 -5 12 0 14 2 19 5 13 2 -7 2 -19 0 -25z
m328 4 c-3 -3 -11 0 -18 7 -9 10 -8 11 6 5 10 -3 15 -9 12 -12z m544 -8 c14
-12 -19 -1 -35 12 -18 14 -18 14 6 3 14 -6 27 -13 29 -15z m-1474 0 c-26 -20
-55 -36 -55 -30 0 5 63 46 70 46 3 -1 -4 -8 -15 -16z m540 6 c-3 -5 -12 -10
-18 -10 -7 0 -6 4 3 10 19 12 23 12 15 0z m-35 -15 c0 -2 -10 -9 -22 -15 -22
-11 -22 -10 -4 4 21 17 26 19 26 11z m-50 -29 c0 -2 -16 -13 -35 -25 -19 -11
-35 -18 -35 -16 0 5 61 45 68 45 1 0 2 -2 2 -4z m-540 -11 c0 -2 -10 -9 -22
-15 -22 -11 -22 -10 -4 4 21 17 26 19 26 11z m1150 -16 c17 -13 18 -17 5 -10
-33 17 -51 31 -40 31 6 0 21 -10 35 -21z m540 -15 c0 -2 -9 0 -20 6 -11 6 -20
13 -20 16 0 2 9 0 20 -6 11 -6 20 -13 20 -16z m-1740 1 c0 -2 -10 -9 -22 -15
-22 -11 -22 -10 -4 4 21 17 26 19 26 11z m1290 -41 c0 -2 -9 0 -20 6 -11 6
-20 13 -20 16 0 2 9 0 20 -6 11 -6 20 -13 20 -16z m540 -10 c0 -2 -13 2 -30
11 -16 9 -30 18 -30 21 0 2 14 -2 30 -11 17 -9 30 -18 30 -21z m-1880 21 c0
-2 -13 -11 -30 -20 -38 -19 -40 -11 -2 9 31 17 32 18 32 11z m520 0 c0 -2 -10
-9 -22 -15 -22 -11 -22 -10 -4 4 21 17 26 19 26 11z m-50 -30 c0 -2 -10 -9
-22 -15 -22 -11 -22 -10 -4 4 21 17 26 19 26 11z m940 -21 c0 -2 -9 0 -20 6
-11 6 -20 13 -20 16 0 2 9 0 20 -6 11 -6 20 -13 20 -16z m540 -10 c0 -2 -9 0
-20 6 -11 6 -20 13 -20 16 0 2 9 0 20 -6 11 -6 20 -13 20 -16z m-2040 11 c0
-2 -13 -11 -30 -20 -38 -19 -40 -11 -2 9 31 17 32 18 32 11z m1550 -31 c0 -2
-9 0 -20 6 -11 6 -20 13 -20 16 0 2 9 0 20 -6 11 -6 20 -13 20 -16z m540 -10
c0 -2 -9 0 -20 6 -11 6 -20 13 -20 16 0 2 9 0 20 -6 11 -6 20 -13 20 -16z
m-1620 11 c0 -2 -10 -9 -22 -15 -22 -11 -22 -10 -4 4 21 17 26 19 26 11z
m-540 -10 c0 -2 -10 -9 -22 -15 -22 -11 -22 -10 -4 4 21 17 26 19 26 11z
m1690 -31 c0 -2 -9 0 -20 6 -11 6 -20 13 -20 16 0 2 9 0 20 -6 11 -6 20 -13
20 -16z m540 -10 c0 -2 -13 2 -30 11 -16 9 -30 18 -30 21 0 2 14 -2 30 -11 17
-9 30 -18 30 -21z m-1760 11 c0 -2 -10 -9 -22 -15 -22 -11 -22 -10 -4 4 21 17
26 19 26 11z m-540 -10 c0 -2 -10 -9 -22 -15 -22 -11 -22 -10 -4 4 21 17 26
19 26 11z m1830 -31 c0 -2 -9 0 -20 6 -11 6 -20 13 -20 16 0 2 9 0 20 -6 11
-6 20 -13 20 -16z m-1900 -9 c0 -2 -10 -9 -22 -15 -22 -11 -22 -10 -4 4 21 17
26 19 26 11z m510 -10 c0 -2 -10 -9 -22 -15 -22 -11 -22 -10 -4 4 21 17 26 19
26 11z m1460 -21 c0 -2 -9 0 -20 6 -11 6 -20 13 -20 16 0 2 9 0 20 -6 11 -6
20 -13 20 -16z m520 0 c0 -2 -9 0 -20 6 -11 6 -20 13 -20 16 0 2 9 0 20 -6 11
-6 20 -13 20 -16z m-2540 1 c0 -2 -10 -9 -22 -15 -22 -11 -22 -10 -4 4 21 17
26 19 26 11z m490 -20 c0 -2 -13 -11 -30 -20 -38 -19 -40 -11 -2 9 31 17 32
18 32 11z m2120 -21 c0 -2 -9 0 -20 6 -11 6 -20 13 -20 16 0 2 9 0 20 -6 11
-6 20 -13 20 -16z m-2680 1 c0 -2 -13 -11 -30 -20 -38 -19 -40 -11 -2 9 31 17
32 18 32 11z m2210 -31 c0 -2 -9 0 -20 6 -11 6 -20 13 -20 16 0 2 9 0 20 -6
11 -6 20 -13 20 -16z m540 -10 c0 -2 -9 0 -20 6 -11 6 -20 13 -20 16 0 2 9 0
20 -6 11 -6 20 -13 20 -16z m-2280 11 c0 -2 -10 -9 -22 -15 -22 -11 -22 -10
-4 4 21 17 26 19 26 11z m1810 -41 c0 -2 -9 0 -20 6 -11 6 -20 13 -20 16 0 2
9 0 20 -6 11 -6 20 -13 20 -16z m520 0 c0 -2 -9 0 -20 6 -11 6 -20 13 -20 16
0 2 9 0 20 -6 11 -6 20 -13 20 -16z m-2380 11 c0 -2 -18 -14 -40 -25 -22 -11
-40 -18 -40 -15 0 2 17 13 38 24 42 23 42 23 42 16z m-540 -10 c0 -2 -10 -9
-22 -15 -22 -11 -22 -10 -4 4 21 17 26 19 26 11z m-60 -35 c-35 -24 -54 -31
-30 -11 14 11 30 21 35 21 6 0 3 -5 -5 -10z m2556 -21 c3 -6 -5 -3 -20 6 -14
10 -26 19 -26 22 0 7 39 -17 46 -28z m534 -5 c0 -2 -13 2 -30 11 -16 9 -30 18
-30 21 0 2 14 -2 30 -11 17 -9 30 -18 30 -21z m-2615 -4 c-3 -5 -12 -10 -18
-10 -7 0 -6 4 3 10 19 12 23 12 15 0z m-569 -25 c-11 -8 -25 -15 -30 -15 -6 1
0 7 14 15 32 19 40 18 16 0z m2744 -21 c0 -2 -9 0 -20 6 -11 6 -20 13 -20 16
0 2 9 0 20 -6 11 -6 20 -13 20 -16z m505 8 c-3 -3 -11 0 -18 7 -9 10 -8 11 6
5 10 -3 15 -9 12 -12z m-2745 3 c0 -2 -10 -9 -22 -15 -22 -11 -22 -10 -4 4 21
17 26 19 26 11z m-772 -12 c-32 -2 -84 -2 -115 0 -32 2 -6 3 57 3 63 0 89 -1
58 -3z m3855 0 c-34 -2 -93 -2 -130 0 -37 2 -9 3 62 3 72 0 102 -1 68 -3z m95
-28 c-3 -3 -9 2 -12 12 -6 14 -5 15 5 6 7 -7 10 -15 7 -18z m-868 -11 c0 -2
-9 0 -20 6 -11 6 -20 13 -20 16 0 2 9 0 20 -6 11 -6 20 -13 20 -16z m-2380 11
c0 -2 -10 -9 -22 -15 -22 -11 -22 -10 -4 4 21 17 26 19 26 11z m2430 -41 c0
-2 -9 0 -20 6 -11 6 -20 13 -20 16 0 2 9 0 20 -6 11 -6 20 -13 20 -16z m801 3
c-10 -9 -11 -8 -5 6 3 10 9 15 12 12 3 -3 0 -11 -7 -18z m-4091 -7 c6 -11 8
-20 6 -20 -3 0 -10 9 -16 20 -6 11 -8 20 -6 20 3 0 10 -9 16 -20z m790 5 c0
-2 -10 -9 -22 -15 -22 -11 -22 -10 -4 4 21 17 26 19 26 11z m2570 -41 c0 -2
-9 0 -20 6 -11 6 -20 13 -20 16 0 2 9 0 20 -6 11 -6 20 -13 20 -16z m711 9
c-5 -10 -17 -27 -26 -38 -16 -19 -17 -19 -3 5 26 46 29 50 34 50 3 0 0 -8 -5
-17z m-3351 -8 c0 -2 -10 -9 -22 -15 -22 -11 -22 -10 -4 4 21 17 26 19 26 11z
m-680 -35 c6 -11 8 -20 6 -20 -3 0 -10 9 -16 20 -6 11 -8 20 -6 20 3 0 10 -9
16 -20z m3390 -6 c0 -2 -9 0 -20 6 -11 6 -20 13 -20 16 0 2 9 0 20 -6 11 -6
20 -13 20 -16z m-2780 1 c0 -2 -10 -9 -22 -15 -22 -11 -22 -10 -4 4 21 17 26
19 26 11z m2830 -31 c0 -2 -9 0 -20 6 -11 6 -20 13 -20 16 0 2 9 0 20 -6 11
-6 20 -13 20 -16z m538 -9 c-6 -14 -13 -23 -15 -21 -5 5 15 46 22 46 3 0 -1
-11 -7 -25z m-2101 -37 c-2 -13 -4 -5 -4 17 -1 22 1 32 4 23 2 -10 2 -28 0
-40z m-1374 5 c-22 -21 -47 -49 -56 -63 -16 -23 -16 -22 0 8 16 30 76 92 89
92 3 0 -12 -17 -33 -37z m3004 -5 c37 -39 81 -108 68 -108 -2 0 -13 17 -24 38
-11 21 -38 55 -60 75 -23 20 -37 37 -33 37 4 0 26 -19 49 -42z m-3457 2 c6
-11 8 -20 6 -20 -3 0 -10 9 -16 20 -6 11 -8 20 -6 20 3 0 10 -9 16 -20z m3894
-25 c-9 -14 -18 -25 -21 -25 -5 0 5 18 20 38 17 22 18 13 1 -13z m-3844 -65
c6 -11 8 -20 6 -20 -3 0 -10 9 -16 20 -6 11 -8 20 -6 20 3 0 10 -9 16 -20z
m3800 -10 c-6 -11 -13 -20 -16 -20 -2 0 0 9 6 20 6 11 13 20 16 20 2 0 0 -9
-6 -20z m-3490 -30 c-6 -11 -13 -20 -16 -20 -2 0 0 9 6 20 6 11 13 20 16 20 2
0 0 -9 -6 -20z m3215 -50 c9 -16 13 -30 11 -30 -3 0 -12 14 -21 30 -9 17 -13
30 -11 30 3 0 12 -13 21 -30z m235 10 c-6 -11 -13 -20 -16 -20 -2 0 0 9 6 20
6 11 13 20 16 20 2 0 0 -9 -6 -20z m-3490 -30 c-6 -11 -13 -20 -16 -20 -2 0 0
9 6 20 6 11 13 20 16 20 2 0 0 -9 -6 -20z m-195 -20 c9 -16 13 -30 11 -30 -3
0 -12 14 -21 30 -9 17 -13 30 -11 30 3 0 12 -13 21 -30z m165 -30 c-6 -11 -13
-20 -16 -20 -2 0 0 9 6 20 6 11 13 20 16 20 2 0 0 -9 -6 -20z m3331 -7 c13
-16 12 -17 -3 -4 -10 7 -18 15 -18 17 0 8 8 3 21 -13z m128 -18 c-12 -19 -23
-35 -25 -35 -6 0 14 40 29 58 18 23 16 12 -4 -23z m-3489 -25 c-6 -11 -13 -20
-16 -20 -2 0 0 9 6 20 6 11 13 20 16 20 2 0 0 -9 -6 -20z m-65 -36 c9 -15 12
-23 6 -20 -11 7 -35 46 -28 46 3 0 12 -12 22 -26z m3499 -23 c-3 -3 -15 6 -27
18 l-22 24 27 -19 c14 -10 24 -21 22 -23z m-1607 -398 c-2 -32 -3 -8 -3 52 0
61 1 87 3 58 2 -29 2 -78 0 -110z m-270 5 c-2 -29 -3 -8 -3 47 0 55 1 79 3 53
2 -26 2 -71 0 -100z m293 -88 c6 -11 8 -20 6 -20 -3 0 -10 9 -16 20 -6 11 -8
20 -6 20 3 0 10 -9 16 -20z m-325 -20 c-9 -16 -18 -30 -21 -30 -2 0 2 14 11
30 9 17 18 30 21 30 2 0 -2 -13 -11 -30z m375 -70 c6 -11 8 -20 6 -20 -3 0
-10 9 -16 20 -6 11 -8 20 -6 20 3 0 10 -9 16 -20z m-420 -10 c-6 -11 -13 -20
-16 -20 -2 0 0 9 6 20 6 11 13 20 16 20 2 0 0 -9 -6 -20z m460 -60 c6 -11 8
-20 6 -20 -3 0 -10 9 -16 20 -6 11 -8 20 -6 20 3 0 10 -9 16 -20z m40 -70 c6
-11 8 -20 6 -20 -3 0 -10 9 -16 20 -6 11 -8 20 -6 20 3 0 10 -9 16 -20z m-580
-10 c-6 -11 -13 -20 -16 -20 -2 0 0 9 6 20 6 11 13 20 16 20 2 0 0 -9 -6 -20z
m-27 -70 c3 -11 1 -18 -4 -14 -5 3 -9 12 -9 20 0 20 7 17 13 -6z m465 -27
c-75 -2 -201 -2 -280 0 -79 1 -17 3 137 3 154 0 218 -2 143 -3z"/>
<path d="M2541 6534 c0 -11 3 -14 6 -6 3 7 2 16 -1 19 -3 4 -6 -2 -5 -13z"/>
<path d="M1584 6509 c-15 -16 -24 -29 -20 -29 5 0 1 -11 -8 -25 -15 -23 -15
-27 -1 -41 10 -10 13 -24 9 -36 -4 -14 -2 -18 5 -14 7 5 9 -3 4 -25 -5 -25 -3
-30 7 -24 10 6 12 1 7 -23 -4 -20 -2 -32 4 -32 7 0 9 -10 5 -25 -4 -16 -2 -25
5 -25 7 0 9 -9 5 -25 -4 -15 -2 -25 4 -25 6 0 8 -11 4 -26 -5 -20 -4 -25 6
-19 8 5 11 2 8 -11 -2 -13 -11 -18 -28 -17 -14 1 -101 4 -195 7 l-170 6 -30
-32 c-16 -18 -23 -28 -15 -23 12 7 12 5 -1 -11 -32 -39 -31 -43 8 -38 30 3 34
2 18 -6 -18 -9 -18 -9 5 -7 14 1 31 -5 38 -13 12 -13 13 -13 7 0 -4 8 6 2 20
-15 15 -16 24 -23 20 -15 -3 8 17 -10 46 -40 29 -30 46 -46 39 -35 -7 11 10
-3 36 -30 27 -28 42 -41 34 -30 -8 11 29 -24 82 -78 53 -53 99 -104 102 -113
3 -8 11 -12 17 -8 8 4 7 9 -2 15 -11 7 -11 9 2 9 10 0 30 15 47 34 17 19 33
32 36 29 3 -4 6 1 6 10 0 17 -15 30 -40 34 -8 1 -23 12 -34 25 -10 13 -21 22
-25 22 -10 -2 -38 20 -40 31 0 6 -5 10 -11 10 -5 0 -22 14 -37 31 -15 16 -23
23 -18 14 6 -9 -12 6 -39 34 -28 28 -43 42 -36 31 15 -20 14 -20 -8 -1 -21 18
-30 32 -14 23 8 -5 33 18 27 25 -3 2 59 3 136 1 126 -3 141 -2 135 13 -3 8 -6
20 -6 25 0 6 -5 7 -11 3 -7 -4 -10 3 -8 17 1 13 -1 32 -6 42 -4 9 -5 24 -2 32
4 8 2 17 -3 20 -6 4 -7 18 -4 32 5 19 4 24 -5 19 -9 -6 -10 0 -6 21 5 21 4 24
-4 13 -8 -12 -11 -7 -11 22 0 55 18 58 63 7 22 -24 36 -37 33 -29 -4 8 17 -10
46 -40 29 -30 46 -46 38 -35 -8 11 16 -9 53 -45 64 -62 79 -79 57 -65 -5 3
-10 4 -10 1 0 -3 13 -12 29 -20 26 -14 30 -14 41 -1 7 8 9 15 4 15 -5 0 8 16
29 35 21 19 35 40 32 45 -4 6 -10 8 -15 5 -10 -6 -130 81 -130 96 0 5 -4 8 -9
5 -5 -4 -26 13 -47 36 -20 24 -31 34 -24 23 7 -11 -16 9 -51 45 -35 36 -54 54
-44 40 11 -14 -9 2 -43 35 -63 60 -72 71 -49 60 6 -4 1 3 -13 15 -14 12 -19
19 -13 15 9 -4 11 -1 7 9 -3 9 -10 13 -15 10 -5 -3 -6 1 -3 9 11 29 -33 26
-62 -4z m36 18 c0 -2 -12 -14 -27 -28 l-28 -24 24 28 c23 25 31 32 31 24z
m-262 -444 c-10 -2 -28 -2 -40 0 -13 2 -5 4 17 4 22 1 32 -1 23 -4z m222 -378
c13 -14 21 -25 18 -25 -2 0 -15 11 -28 25 -13 14 -21 25 -18 25 2 0 15 -11 28
-25z"/>
<path d="M5640 6441 c0 -6 4 -13 10 -16 6 -3 7 1 4 9 -7 18 -14 21 -14 7z"/>
<path d="M1690 6270 c0 -5 7 -10 16 -10 8 0 12 5 9 10 -3 6 -10 10 -16 10 -5
0 -9 -4 -9 -10z"/>
<path d="M6740 6153 c0 -5 -19 -24 -42 -43 -23 -19 -38 -28 -33 -20 5 8 -6 0
-23 -18 -20 -21 -36 -31 -44 -26 -7 4 -10 4 -6 -1 10 -10 -61 -57 -74 -49 -7
4 -8 2 -4 -4 6 -11 -6 -16 -19 -9 -2 1 -10 -6 -17 -15 -7 -9 -20 -18 -28 -20
-8 -2 -23 -11 -34 -20 -10 -10 -24 -15 -29 -11 -6 3 -7 1 -3 -5 6 -10 -30 -28
-46 -24 -5 1 -8 -3 -8 -9 0 -5 -4 -7 -10 -4 -5 3 -10 2 -10 -4 0 -10 -38 -27
-52 -23 -5 1 -8 -3 -8 -9 0 -5 -3 -8 -7 -6 -9 6 -27 -13 -31 -31 -1 -7 3 -12
9 -12 5 0 7 -4 4 -10 -3 -5 -2 -10 4 -10 14 0 42 -55 33 -65 -4 -5 -1 -5 6 -1
11 7 17 -5 13 -27 -1 -5 2 -6 7 -3 5 3 17 -9 27 -26 13 -22 14 -29 4 -24 -8 4
-5 0 5 -8 11 -9 16 -16 10 -16 -5 0 -1 -5 9 -11 9 -6 15 -14 12 -20 -4 -5 -2
-9 2 -9 8 0 49 -62 45 -68 -1 -1 7 -12 17 -24 11 -11 18 -24 16 -28 -3 -5 2
-11 11 -14 9 -4 14 -9 11 -12 -3 -3 3 -14 14 -25 11 -11 17 -24 14 -29 -4 -6
-1 -10 5 -10 6 0 8 -4 5 -10 -3 -5 -1 -10 4 -10 6 0 11 -7 11 -15 0 -8 14 -28
30 -45 17 -17 28 -35 25 -40 -3 -4 2 -11 11 -14 9 -4 14 -9 11 -12 -3 -3 4
-17 15 -30 16 -18 24 -21 35 -13 7 6 13 9 13 5 0 -3 14 8 31 26 17 18 28 26
24 18 -4 -8 1 -6 10 5 9 11 21 19 26 18 5 -2 9 1 9 6 0 10 42 39 62 43 7 2 18
10 25 18 7 8 13 11 13 5 0 -7 3 -7 8 0 13 18 56 51 48 37 -7 -11 -4 -12 13 -3
11 7 21 17 21 23 0 6 3 9 6 6 3 -4 14 2 25 13 11 11 24 17 28 14 5 -2 12 2 15
11 3 8 10 12 16 9 5 -3 10 -1 10 5 0 6 5 8 10 5 6 -3 10 -1 10 5 0 6 5 8 10 5
6 -3 10 -1 10 5 0 6 4 9 9 6 5 -4 11 -1 13 4 2 6 13 12 26 13 12 0 23 6 24 12
4 31 2 41 -12 53 -13 12 -13 13 0 7 10 -4 9 -2 -2 8 -10 8 -18 19 -18 24 0 18
-46 21 -57 4 -14 -21 -109 -89 -99 -70 4 8 -1 4 -11 -8 -10 -12 -25 -23 -33
-25 -8 -2 -21 -10 -28 -18 -12 -13 -13 -13 -7 0 4 10 2 9 -8 -2 -8 -10 -17
-15 -20 -11 -4 3 -7 1 -7 -5 0 -11 -52 -44 -66 -41 -4 0 -10 -3 -13 -8 -9 -13
-71 -55 -71 -49 0 3 -9 -3 -21 -15 -17 -17 -23 -18 -37 -7 -13 11 -15 11 -7
-2 5 -9 0 -7 -14 4 -27 24 -85 124 -86 150 -1 10 11 33 28 50 16 17 23 22 16
12 -13 -18 -13 -18 8 -6 12 8 19 18 17 22 -3 4 0 8 6 8 6 0 27 11 47 25 20 13
41 21 46 18 6 -3 7 -1 3 5 -4 7 -2 12 3 12 6 0 13 0 16 0 3 0 14 9 25 20 12
12 25 18 29 15 5 -2 12 2 15 11 4 9 9 14 12 11 3 -3 14 3 25 14 11 11 24 17
29 14 6 -4 10 -1 10 5 0 6 5 8 10 5 6 -3 10 -1 10 5 0 6 5 8 10 5 6 -3 10 -1
10 5 0 6 5 8 10 5 6 -3 10 -1 10 5 0 6 5 8 10 5 6 -3 10 -2 10 3 0 6 9 8 20 5
12 -3 20 0 20 6 0 7 -4 9 -10 6 -6 -3 -7 1 -4 10 4 8 0 23 -7 32 -12 14 -12
16 1 9 9 -4 8 -2 -2 7 -10 8 -15 17 -11 20 3 4 1 7 -5 7 -7 0 -12 7 -12 15 0
14 -10 18 -27 13 -5 -2 -7 -5 -6 -9 1 -3 -8 -11 -20 -19 -21 -12 -21 -12 -7 6
8 10 -7 -2 -33 -29 -27 -26 -53 -45 -58 -41 -5 3 -9 1 -9 -3 0 -10 -71 -55
-83 -53 -5 1 -15 -7 -24 -17 -8 -10 -11 -11 -7 -3 4 8 -5 2 -19 -13 -15 -15
-31 -26 -36 -23 -5 3 -12 -1 -15 -10 -3 -8 -10 -12 -16 -9 -5 3 -10 2 -10 -3
0 -6 -20 -22 -44 -36 -37 -21 -49 -24 -71 -16 -14 5 -23 14 -20 20 3 5 1 10
-5 10 -6 0 -9 4 -6 9 3 5 -1 12 -10 15 -8 3 -12 10 -9 16 3 5 2 10 -4 10 -6 0
-20 18 -31 41 -21 39 -21 41 -3 56 10 8 12 12 6 8 -7 -3 -13 -4 -13 -1 0 6 54
36 67 38 5 0 14 9 21 20 8 10 19 17 25 15 6 -2 19 5 29 15 10 10 24 16 30 12
6 -4 8 -3 5 2 -3 5 8 17 24 27 18 10 28 12 24 4 -4 -6 1 -3 9 7 9 11 16 16 16
11 0 -5 6 -1 13 8 6 9 18 17 26 19 8 2 23 11 33 21 10 10 23 15 28 12 6 -4 10
-1 10 5 0 6 4 9 9 6 5 -3 12 1 15 10 3 9 12 14 18 12 33 -11 52 48 25 75 -10
10 -16 21 -14 25 2 4 -4 15 -15 25 -10 9 -18 14 -18 10z"/>
<path d="M1007 5746 c-14 -13 -23 -27 -20 -30 4 -3 1 -6 -6 -6 -7 0 -9 -4 -6
-10 3 -5 2 -10 -3 -10 -19 0 1 -42 23 -50 23 -9 58 -56 58 -77 0 -7 4 -13 9
-13 5 0 6 -4 3 -10 -3 -5 -1 -10 5 -10 6 0 8 -4 5 -10 -3 -5 -1 -10 5 -10 6 0
8 -4 5 -10 -3 -5 -1 -10 5 -10 6 0 8 -4 5 -10 -3 -5 -1 -10 5 -10 6 0 9 -4 6
-9 -4 -5 -2 -11 3 -13 15 -5 62 -108 55 -120 -4 -6 -3 -8 3 -5 12 8 26 -20 17
-34 -3 -5 -1 -9 5 -9 6 0 7 -7 4 -17 -4 -10 -2 -14 4 -10 7 5 9 0 6 -13 -6
-24 -19 -26 -27 -5 -3 9 -11 15 -18 14 -20 -4 -58 11 -58 22 0 6 -4 7 -10 4
-5 -3 -10 -1 -10 5 0 6 -4 8 -10 5 -5 -3 -10 -1 -10 5 0 6 -4 8 -10 5 -5 -3
-10 -1 -10 5 0 6 -4 8 -10 5 -5 -3 -10 -1 -10 5 0 6 -4 8 -10 5 -5 -3 -10 -1
-10 5 0 6 -4 8 -10 5 -5 -3 -10 -1 -10 5 0 6 -4 9 -10 5 -5 -3 -18 3 -30 15
-11 11 -20 17 -20 13 0 -5 -6 -1 -13 8 -12 16 -18 19 -38 19 -5 0 -8 4 -5 9
11 17 -23 20 -36 3 -11 -15 -11 -16 2 -7 9 6 8 2 -2 -7 -11 -9 -18 -18 -18
-20 5 -11 -14 -57 -21 -52 -5 3 -9 -2 -9 -10 0 -8 5 -18 12 -22 7 -5 9 -2 4 7
-4 8 -1 6 7 -3 8 -10 16 -15 19 -13 3 3 18 0 34 -6 16 -7 32 -12 37 -11 4 1 7
-3 7 -9 0 -5 5 -7 10 -4 6 3 10 1 10 -5 0 -6 4 -9 9 -5 5 3 16 -1 24 -9 8 -8
17 -12 21 -9 3 4 6 0 6 -7 0 -7 3 -11 6 -7 7 7 147 -61 152 -74 2 -5 8 -7 13
-3 5 3 9 0 9 -6 0 -6 5 -8 10 -5 6 3 10 1 10 -5 0 -6 5 -8 10 -5 6 3 10 1 10
-5 0 -6 5 -8 10 -5 6 3 10 1 10 -5 0 -6 5 -8 10 -5 6 3 10 1 10 -5 0 -6 4 -9
9 -6 5 3 20 -4 33 -17 14 -12 29 -23 34 -24 5 -1 17 -5 26 -8 13 -5 21 2 33
27 8 18 13 24 10 13 -4 -11 -3 -16 2 -12 4 5 9 26 10 48 2 32 0 39 -16 39 -10
0 -25 8 -32 18 -13 16 -12 16 6 3 11 -8 8 -2 -7 13 -26 25 -32 38 -29 59 0 4
-4 7 -10 7 -5 0 -7 5 -4 10 3 6 1 10 -5 10 -6 0 -8 5 -5 10 3 6 1 10 -5 10 -6
0 -9 4 -6 9 4 5 2 11 -3 13 -15 5 -102 188 -95 200 4 6 3 8 -3 5 -6 -4 -14 0
-17 9 -9 24 -7 31 4 14 8 -12 10 -11 10 7 0 25 -16 39 -23 21 -4 -9 -6 -10 -6
-1 -2 21 18 24 30 4 7 -10 19 -17 26 -14 7 3 13 0 13 -7 0 -6 5 -8 10 -5 6 3
10 1 10 -5 0 -6 4 -9 8 -6 12 7 132 -51 132 -64 0 -6 5 -8 10 -5 6 3 10 1 10
-5 0 -6 5 -8 10 -5 6 3 10 1 10 -5 0 -6 5 -8 10 -5 6 3 13 -1 16 -9 3 -9 10
-13 15 -10 5 3 12 -2 15 -10 3 -9 10 -13 15 -10 5 3 12 -1 15 -9 3 -9 13 -13
25 -10 10 3 16 9 13 14 -3 5 0 9 6 9 6 0 8 5 5 10 -3 6 -1 10 5 10 6 0 8 5 5
10 -3 6 -1 10 6 10 7 0 10 3 6 6 -3 3 -2 16 3 28 7 18 4 22 -13 24 -12 0 -23
6 -25 11 -2 5 -10 7 -18 4 -8 -3 -14 0 -14 6 0 6 -7 8 -17 4 -11 -4 -14 -3 -9
5 5 8 2 10 -8 6 -9 -3 -16 -1 -16 6 0 6 -4 8 -10 5 -5 -3 -10 -1 -10 5 0 6 -4
8 -10 5 -5 -3 -10 -1 -10 5 0 6 -4 8 -10 5 -5 -3 -10 -1 -10 5 0 6 -4 8 -10 5
-5 -3 -10 -1 -10 5 0 6 -4 9 -9 6 -13 -8 -42 4 -35 15 3 5 -2 6 -10 3 -8 -3
-23 3 -34 14 -11 11 -23 18 -26 15 -3 -4 -6 -1 -6 6 0 7 -4 9 -10 6 -5 -3 -10
-1 -10 5 0 6 -4 8 -10 5 -5 -3 -10 -1 -10 5 0 6 -4 8 -10 5 -5 -3 -10 -1 -10
5 0 6 -4 8 -10 5 -5 -3 -10 -1 -10 5 0 6 -4 8 -10 5 -5 -3 -10 -1 -10 5 0 6
-4 8 -10 5 -5 -3 -10 -1 -10 5 0 6 -4 9 -10 5 -5 -3 -18 3 -30 15 -11 11 -20
17 -20 13 0 -5 -7 1 -15 11 -8 11 -15 16 -15 10 0 -5 -4 -3 -8 4 -7 9 -15 7
-35 -12z"/>
<path d="M7218 5158 c-2 -4 -12 -9 -23 -11 -11 -2 -28 -7 -37 -11 -9 -4 -22
-8 -30 -10 -7 -1 -19 -5 -25 -9 -7 -5 -13 -5 -13 -1 0 3 -7 1 -15 -6 -8 -6
-19 -9 -25 -5 -5 3 -10 1 -10 -5 0 -7 -7 -10 -15 -6 -8 3 -15 1 -15 -5 0 -5
-11 -7 -26 -3 -20 5 -25 4 -19 -6 5 -9 2 -10 -14 -5 -13 4 -21 2 -21 -5 0 -7
-8 -9 -21 -5 -15 5 -19 4 -14 -5 5 -8 1 -11 -11 -9 -11 2 -25 0 -32 -5 -7 -4
-29 -8 -47 -9 -19 0 -32 -4 -29 -9 3 -4 -9 -5 -27 -1 -24 5 -30 3 -24 -6 5 -9
-2 -12 -26 -9 -29 3 -34 0 -37 -21 -3 -16 0 -21 9 -16 9 6 11 2 7 -13 -4 -12
-2 -25 4 -28 5 -3 7 -12 4 -20 -3 -8 -1 -14 5 -14 6 0 8 -4 5 -8 -2 -4 4 -8
15 -8 10 0 19 3 19 6 0 3 16 5 35 6 19 0 35 -3 35 -8 0 -4 3 -7 8 -6 17 4 72
-14 67 -23 -4 -5 2 -6 11 -2 13 5 15 3 9 -7 -5 -8 -4 -11 2 -7 13 8 106 -27
96 -37 -4 -4 0 -4 9 -1 8 3 23 -1 32 -10 9 -9 16 -13 16 -9 0 5 5 3 11 -3 6
-6 18 -9 27 -6 10 4 13 2 8 -5 -4 -8 -2 -10 7 -6 8 3 23 -3 32 -13 10 -10 20
-17 22 -15 2 2 9 1 16 -2 13 -5 -18 -36 -37 -36 -6 0 -4 5 4 10 8 5 10 10 5
10 -6 0 -21 -7 -33 -16 -13 -9 -29 -13 -37 -10 -8 3 -15 1 -15 -5 0 -6 -9 -8
-21 -4 -16 5 -19 4 -14 -5 5 -9 2 -10 -14 -5 -13 4 -21 2 -21 -5 0 -7 -6 -10
-14 -7 -8 3 -16 2 -18 -4 -2 -5 -19 -11 -39 -13 -20 -2 -41 -6 -48 -10 -6 -4
-24 -6 -39 -5 -47 3 -61 -8 -52 -42 5 -17 6 -37 3 -46 -5 -12 -3 -14 7 -8 10
6 12 4 7 -8 -4 -10 -1 -18 6 -19 34 -4 43 -2 56 10 7 7 20 11 27 8 8 -3 14 -1
14 5 0 6 7 8 16 5 9 -4 13 -2 8 5 -4 8 1 9 16 4 16 -5 20 -4 15 5 -5 9 -2 10
14 5 13 -4 21 -2 21 5 0 7 7 10 15 6 8 -3 15 -1 15 5 0 6 9 8 20 4 12 -4 20
-2 20 5 0 7 8 9 21 5 16 -5 19 -4 14 6 -6 9 -2 11 13 7 12 -4 22 -3 22 1 0 3
19 11 43 17 23 6 51 14 62 18 17 7 18 6 5 -4 -13 -10 -12 -11 3 -6 10 3 26 6
35 6 15 0 15 2 2 11 -12 8 -12 10 5 8 11 -1 44 2 73 6 40 6 52 12 52 25 0 10
3 26 7 36 5 12 3 15 -6 9 -10 -6 -11 -2 -6 15 5 17 4 21 -6 15 -8 -6 -11 -4
-7 7 4 8 2 21 -2 28 -7 11 -14 12 -35 2 -32 -15 -72 -16 -80 -2 -4 6 -11 8
-16 5 -5 -4 -9 -1 -9 5 0 6 -4 8 -10 5 -5 -3 -10 -2 -10 4 0 6 -7 8 -15 5 -8
-4 -15 -1 -15 5 0 6 -3 10 -7 10 -25 -4 -43 2 -37 13 5 8 2 9 -9 5 -10 -3 -17
-2 -17 3 0 5 -7 6 -17 3 -9 -4 -14 -2 -11 3 4 5 -6 10 -20 11 -15 0 -28 6 -30
12 -2 6 -8 9 -13 5 -5 -3 -9 -1 -9 5 0 6 -6 8 -14 5 -7 -3 -20 2 -29 10 -8 8
-17 12 -21 9 -3 -4 -6 -1 -6 5 0 6 -6 9 -14 6 -11 -4 -13 0 -9 17 5 18 3 21
-11 16 -11 -4 -15 -3 -11 4 4 5 12 8 18 6 7 -2 26 2 44 10 18 7 40 10 49 6 12
-5 15 -3 9 6 -5 10 -2 11 14 6 13 -4 21 -2 21 5 0 7 8 9 20 5 12 -4 20 -2 20
5 0 7 8 10 18 8 10 -3 24 1 31 9 9 10 24 12 53 8 30 -5 39 -4 33 5 -5 8 2 11
25 8 31 -3 32 -1 35 35 1 20 -2 37 -7 37 -5 0 -8 6 -6 12 7 20 -18 38 -46 36
-14 -1 -27 -6 -28 -10z"/>
<path d="M714 5046 c-17 -8 -34 -21 -37 -30 -4 -10 -3 -15 3 -11 6 3 7 -1 4
-9 -3 -9 -11 -13 -17 -9 -6 4 -8 0 -4 -10 3 -10 2 -17 -4 -17 -6 0 -8 -9 -4
-20 4 -11 2 -20 -4 -20 -7 0 -9 -17 -5 -47 4 -36 3 -44 -5 -33 -8 12 -11 7
-11 -23 0 -26 4 -36 11 -31 8 5 10 -4 7 -30 -2 -20 0 -36 5 -36 5 0 7 -6 5
-12 -3 -7 1 -19 9 -26 7 -8 11 -17 8 -22 -3 -4 2 -10 10 -14 8 -3 12 -11 10
-19 -5 -12 46 -70 59 -68 3 1 34 -13 69 -31 34 -17 67 -33 72 -33 6 -1 12 -3
15 -4 14 -7 140 -5 140 2 0 4 7 7 15 7 42 0 177 96 201 142 8 16 12 38 9 48
-4 11 -2 20 4 20 6 0 8 7 5 15 -4 8 -1 15 5 15 7 0 9 10 5 26 -5 19 -4 25 5
20 7 -5 11 6 11 34 0 28 -4 39 -11 34 -8 -4 -9 3 -5 22 4 20 1 36 -9 49 -16
19 -16 19 -5 -3 7 -13 10 -26 7 -28 -2 -3 -10 9 -17 26 -7 16 -16 27 -21 24
-5 -3 -9 -1 -9 4 0 5 -14 6 -31 4 -20 -3 -27 -7 -18 -12 7 -5 12 -28 12 -57
-1 -34 2 -42 7 -28 6 14 9 5 9 -32 1 -51 -14 -101 -34 -115 -5 -4 -6 -8 -1 -8
6 0 1 -7 -10 -16 -10 -8 -13 -13 -6 -9 6 3 12 4 12 1 0 -10 -73 -55 -82 -50
-4 3 -8 0 -8 -6 0 -6 -3 -9 -7 -7 -5 2 -46 1 -93 -3 -47 -4 -90 -3 -96 2 -6 4
-14 5 -17 1 -4 -3 -7 -1 -7 5 0 6 -7 9 -15 6 -8 -4 -17 1 -21 10 -3 9 -10 14
-14 11 -8 -5 -36 22 -42 40 -2 6 -7 9 -11 7 -4 -1 -16 17 -27 40 -22 51 -21
165 1 179 8 5 10 9 6 9 -5 0 4 22 19 50 15 27 29 48 33 47 3 -1 6 2 6 8 0 5
-9 11 -20 13 -11 1 -21 7 -23 12 -5 13 -10 12 -48 -4z m556 -374 c0 -5 -7 -17
-15 -28 -14 -18 -14 -17 -4 9 12 27 19 34 19 19z m-540 -77 c13 -14 21 -25 18
-25 -2 0 -15 11 -28 25 -13 14 -21 25 -18 25 2 0 15 -11 28 -25z m283 -2 c-13
-2 -35 -2 -50 0 -16 2 -5 4 22 4 28 0 40 -2 28 -4z"/>
<path d="M7178 5023 c7 -3 16 -2 19 1 4 3 -2 6 -13 5 -11 0 -14 -3 -6 -6z"/>
<path d="M1202 4780 c0 -14 2 -19 5 -12 2 6 2 18 0 25 -3 6 -5 1 -5 -13z"/>
<path d="M700 4062 c-126 -56 -132 -235 -10 -299 55 -29 95 -29 151 0 152 80
96 309 -75 306 -28 0 -58 -3 -66 -7z"/>
<path d="M7009 4047 c-104 -70 -108 -215 -7 -277 75 -46 153 -35 211 29 75 83
54 206 -44 256 -44 23 -120 19 -160 -8z"/>
<path d="M1180 3430 c-13 -9 -13 -10 0 -10 8 -1 5 -5 -8 -11 -13 -5 -28 -7
-33 -3 -5 3 -9 1 -9 -5 0 -6 -7 -7 -17 -4 -11 5 -14 3 -8 -6 6 -10 2 -11 -15
-6 -16 5 -20 4 -15 -5 5 -9 1 -10 -15 -5 -17 5 -21 4 -15 -6 6 -9 2 -11 -13
-7 -12 4 -22 2 -22 -3 0 -5 -12 -6 -26 -3 -20 5 -25 4 -19 -6 5 -9 2 -10 -15
-5 -17 5 -20 4 -15 -5 6 -10 1 -11 -19 -6 -16 4 -26 2 -26 -5 0 -6 -7 -9 -15
-6 -8 4 -17 2 -21 -4 -3 -6 -12 -8 -20 -5 -7 3 -16 1 -20 -5 -3 -6 -12 -8 -20
-5 -8 3 -14 1 -14 -5 0 -6 -9 -8 -20 -4 -12 4 -20 2 -20 -5 0 -7 -8 -9 -19 -5
-11 3 -22 1 -26 -5 -3 -5 -20 -10 -36 -10 -38 0 -69 -16 -69 -36 0 -9 5 -12
12 -8 7 5 9 0 6 -14 -3 -12 -2 -22 2 -24 5 -2 10 -16 12 -33 2 -16 9 -36 16
-44 7 -7 11 -20 8 -27 -3 -8 0 -14 6 -14 6 0 9 -3 5 -6 -3 -3 3 -14 14 -25 11
-11 17 -23 15 -28 -3 -4 7 -19 22 -32 l27 -24 -20 25 c-18 24 -18 24 7 -1 14
-15 29 -25 32 -22 3 4 6 1 6 -5 0 -6 7 -9 17 -5 9 4 14 2 10 -3 -3 -6 11 -9
36 -9 61 2 69 4 63 14 -3 5 1 12 10 15 10 4 13 2 9 -7 -4 -6 4 1 17 18 13 16
30 37 39 46 8 8 14 20 12 25 -2 5 3 18 10 28 11 15 17 17 35 7 12 -6 22 -16
22 -22 0 -6 5 -7 10 -4 6 3 10 2 10 -3 0 -5 23 -10 50 -11 33 -1 50 3 50 10 0
7 3 10 6 6 11 -11 73 73 78 106 11 71 13 137 3 137 -5 0 -7 9 -4 20 3 11 1 20
-5 20 -5 0 -8 6 -5 13 2 6 -5 25 -16 41 -12 16 -15 26 -8 21 9 -5 12 -3 9 5
-6 18 -20 22 -38 10z m4 -190 c-1 -29 -7 -48 -24 -63 -12 -12 -20 -15 -16 -7
7 13 6 13 -6 0 -20 -23 -92 -19 -114 5 -11 12 -17 16 -14 10 3 -6 -3 -2 -12 8
-10 11 -18 25 -18 32 0 20 26 36 45 28 14 -5 16 -3 10 7 -6 10 -3 12 13 8 12
-4 22 -2 22 4 0 6 9 8 20 5 11 -3 22 -2 25 3 3 4 19 6 37 5 32 -3 33 -4 32
-45z m-261 -71 c-1 -52 -5 -65 -30 -91 -24 -25 -35 -29 -73 -27 -62 3 -99 24
-116 64 -17 42 -17 46 -1 43 6 -2 11 2 10 9 -2 8 4 10 14 6 12 -5 14 -3 8 7
-6 10 -2 12 19 8 14 -3 26 -1 26 4 0 6 7 8 15 5 8 -4 17 -2 21 4 3 6 12 8 20
5 8 -3 14 -1 14 5 0 6 7 9 15 5 8 -3 15 -1 15 4 0 6 10 10 23 10 21 0 22 -4
20 -61z m14 -6 c-3 -10 -5 -2 -5 17 0 19 2 27 5 18 2 -10 2 -26 0 -35z m160
-19 c-3 -3 -12 -4 -19 -1 -8 3 -5 6 6 6 11 1 17 -2 13 -5z"/>
<path d="M6799 3415 c-2 -13 -4 -22 -14 -62 -4 -18 -11 -33 -16 -33 -5 0 -6
-15 -3 -32 4 -22 3 -29 -4 -20 -7 10 -11 3 -15 -25 -4 -21 -6 -49 -6 -63 1
-23 2 -23 10 5 7 25 8 23 4 -14 -3 -33 2 -53 20 -81 26 -41 74 -80 99 -80 9 0
16 -4 16 -10 0 -5 16 -10 36 -10 24 0 33 4 28 12 -5 8 0 9 14 6 13 -4 22 -1
22 5 0 6 3 7 7 4 3 -4 12 2 19 12 11 16 20 18 49 11 31 -7 34 -6 24 6 -7 8
-19 12 -28 9 -13 -5 -14 -4 -3 7 11 11 19 6 47 -27 18 -21 31 -44 28 -50 -4
-5 -3 -7 2 -3 8 8 32 -18 33 -35 1 -4 11 -17 24 -28 13 -11 16 -18 8 -14 -8 4
-6 -1 4 -9 11 -9 17 -16 13 -16 -3 0 5 -12 18 -26 14 -15 23 -29 21 -33 -2 -3
5 -15 15 -25 11 -11 20 -15 20 -8 3 26 4 31 11 37 4 4 4 13 1 21 -3 8 0 14 6
14 6 0 11 11 11 25 0 14 -4 25 -9 25 -9 0 -21 26 -20 43 0 5 -8 15 -18 23 -10
7 -14 14 -9 14 6 0 1 7 -10 16 -10 8 -12 12 -4 8 8 -4 5 4 -8 17 -33 35 -112
138 -112 146 0 4 7 -2 15 -13 13 -16 14 -16 9 -1 -5 14 0 17 31 17 24 0 34 -4
29 -11 -4 -8 1 -9 16 -4 15 5 20 4 16 -4 -5 -7 -1 -9 8 -5 9 3 16 1 16 -5 0
-6 3 -10 8 -9 14 4 52 -13 52 -23 0 -6 5 -7 10 -4 6 3 10 0 10 -7 0 -7 11 -2
24 12 13 14 21 31 18 39 -4 9 -1 12 7 7 9 -6 10 0 5 20 -5 19 -4 25 5 20 7 -5
11 1 11 14 0 12 -4 18 -10 15 -5 -3 -10 -2 -10 2 0 5 -19 7 -42 6 -35 -2 -39
-1 -23 7 16 8 13 10 -17 6 -20 -2 -39 -1 -43 2 -6 7 -11 8 -53 10 -14 1 -21 6
-16 13 4 8 0 9 -15 4 -13 -4 -21 -2 -21 5 0 7 -8 9 -20 5 -11 -4 -20 -2 -20 4
0 6 -7 8 -15 5 -8 -4 -15 -1 -15 5 0 6 -7 8 -15 5 -8 -4 -15 -2 -15 4 0 6 -9
8 -20 5 -11 -3 -20 0 -20 6 0 5 -7 8 -15 5 -8 -4 -15 -1 -15 6 0 7 -8 9 -21 5
-13 -4 -19 -3 -16 2 4 5 -8 10 -25 10 -18 0 -34 5 -36 11 -2 7 -8 10 -13 6 -5
-3 -9 0 -9 6 0 6 -4 8 -10 5 -5 -3 -10 -1 -10 5 0 6 -4 8 -10 5 -5 -3 -10 -1
-10 5 0 6 -5 8 -11 4 -6 -3 -15 0 -20 7 -5 8 -9 10 -10 4z m105 -156 c-4 -8 1
-9 16 -4 17 5 21 4 15 -6 -6 -9 -3 -11 8 -6 10 3 17 3 17 -1 0 -4 11 -8 25 -8
56 -4 73 -13 68 -36 -4 -19 -3 -20 6 -8 6 8 11 11 11 7 0 -14 -42 -69 -48 -63
-3 3 -11 -2 -19 -12 -8 -9 -12 -12 -9 -7 3 7 -13 9 -49 5 -32 -4 -51 -2 -48 3
3 5 0 7 -8 5 -20 -7 -49 21 -42 40 4 9 2 13 -4 9 -15 -10 -24 18 -17 53 6 28
18 35 67 39 11 0 15 -3 11 -10z"/>
<path d="M6850 3156 c0 -2 8 -10 18 -17 15 -13 16 -12 3 4 -13 16 -21 21 -21
13z"/>
<path d="M1262 3230 c0 -14 2 -19 5 -12 2 6 2 18 0 25 -3 6 -5 1 -5 -13z"/>
<path d="M986 3064 c-5 -14 -4 -15 9 -4 17 14 19 20 6 20 -5 0 -12 -7 -15 -16z"/>
<path d="M1344 2931 c5 -8 -42 -36 -56 -33 -5 1 -8 -2 -8 -8 0 -12 -75 -51
-84 -43 -3 4 -6 1 -6 -6 0 -7 -4 -9 -10 -6 -5 3 -10 1 -10 -5 0 -6 -4 -8 -10
-5 -5 3 -10 1 -10 -5 0 -7 -7 -9 -16 -6 -8 3 -13 2 -10 -3 7 -11 -22 -23 -35
-15 -5 3 -9 1 -9 -4 0 -9 -37 -25 -52 -23 -5 1 -8 -4 -8 -10 0 -5 -4 -7 -10
-4 -5 3 -10 1 -10 -5 0 -6 -4 -8 -10 -5 -5 3 -10 1 -10 -5 0 -7 -7 -9 -16 -6
-10 4 -13 2 -8 -6 5 -8 2 -9 -9 -5 -10 3 -17 2 -17 -4 0 -6 -4 -7 -10 -4 -5 3
-10 2 -10 -3 0 -11 -70 -33 -82 -26 -4 3 -8 1 -8 -5 0 -6 -6 -8 -14 -5 -22 8
-27 -11 -11 -42 7 -15 12 -31 9 -36 -3 -4 0 -8 6 -8 6 0 8 -4 5 -10 -3 -5 -2
-10 4 -10 10 0 27 -38 23 -52 -1 -5 3 -8 9 -8 5 0 7 -4 4 -10 -3 -5 -1 -10 5
-10 6 0 8 -4 5 -10 -3 -5 -2 -10 3 -10 13 0 33 -50 26 -62 -4 -6 -2 -8 3 -5 6
4 14 0 17 -9 4 -10 2 -13 -7 -8 -8 5 -8 2 2 -9 7 -9 17 -14 22 -11 5 3 9 0 9
-5 0 -13 89 -14 109 -2 11 7 6 17 -25 46 -21 21 -32 34 -24 30 8 -4 1 5 -17
21 -18 16 -34 35 -35 43 -2 8 -11 23 -20 33 -25 26 -16 59 20 80 18 10 32 15
32 12 0 -3 7 2 16 10 14 14 35 21 57 17 4 0 7 3 7 7 0 10 36 9 46 -1 4 -4 8
-24 9 -44 5 -80 4 -79 15 -63 8 13 10 13 10 -1 0 -12 11 -18 35 -21 19 -2 39
-2 44 1 15 11 18 36 4 50 -8 7 -12 20 -9 28 3 8 2 12 -2 9 -5 -3 -16 11 -25
30 -15 31 -16 37 -2 50 8 9 12 20 9 26 -4 7 -2 8 4 4 7 -4 12 -2 12 4 0 6 5 8
10 5 6 -3 10 -1 10 5 0 6 5 8 10 5 6 -3 10 -1 10 5 0 6 5 8 10 5 6 -3 10 -1
10 6 0 7 3 10 6 6 4 -3 13 0 21 8 18 18 47 19 60 3 17 -24 34 -88 28 -107 -3
-11 -1 -22 5 -26 6 -3 8 -11 5 -16 -3 -5 2 -6 11 -2 12 4 15 3 10 -6 -6 -9 4
-11 40 -9 31 2 49 8 52 18 5 13 3 13 -13 0 -17 -14 -18 -14 -6 9 11 19 11 25
0 32 -8 5 -10 9 -6 9 5 0 1 7 -8 16 -9 9 -14 23 -11 31 3 8 2 12 -3 9 -11 -7
-23 22 -15 35 3 5 0 9 -6 9 -6 0 -8 5 -5 10 3 6 1 10 -6 10 -7 0 -10 3 -6 6 3
4 -1 13 -9 21 -8 9 -13 22 -10 29 3 8 1 14 -4 14 -6 0 -18 16 -27 35 -9 19
-21 35 -25 35 -5 0 -7 -4 -4 -9z m-307 -567 c-3 -3 -12 -4 -19 -1 -8 3 -5 6 6
6 11 1 17 -2 13 -5z"/>
<path d="M6625 2855 c-7 -19 -19 -35 -25 -35 -6 0 -9 -4 -5 -9 3 -5 -1 -16
-10 -24 -13 -13 -13 -17 2 -29 14 -11 16 -11 9 2 -4 8 0 6 8 -4 9 -11 16 -16
16 -12 0 5 7 3 15 -4 8 -7 12 -16 9 -21 -3 -5 0 -9 6 -9 6 0 8 -4 5 -10 -3 -5
-1 -10 6 -10 7 0 10 -3 6 -6 -3 -4 1 -13 9 -21 8 -8 12 -19 9 -24 -4 -5 -2 -9
4 -9 6 0 7 -7 4 -17 -4 -11 -3 -14 5 -9 11 7 14 3 16 -26 1 -7 5 -16 9 -19 4
-3 9 -16 10 -27 1 -12 5 -22 10 -22 4 0 5 -4 2 -10 -3 -5 -1 -10 5 -10 6 0 8
-4 5 -10 -3 -5 -2 -10 3 -10 9 0 28 -39 34 -70 2 -8 6 -17 9 -20 9 -7 -9 -50
-21 -50 -5 0 -19 9 -29 19 -11 11 -22 17 -25 14 -3 -4 -6 -1 -6 6 0 7 -4 9
-10 6 -5 -3 -10 -1 -10 5 0 6 -4 8 -10 5 -5 -3 -10 -1 -10 5 0 6 -4 8 -10 5
-5 -3 -10 -1 -10 5 0 6 -4 9 -10 5 -5 -3 -18 3 -30 15 -11 11 -22 19 -25 18
-2 -2 -13 5 -24 14 -11 9 -22 14 -25 11 -3 -3 -8 2 -12 11 -3 9 -10 14 -15 11
-4 -3 -16 6 -25 20 -15 22 -63 38 -49 16 3 -6 -2 -14 -11 -19 -9 -5 -15 -11
-13 -13 6 -11 -26 -77 -35 -72 -6 4 -7 2 -3 -3 5 -5 12 -9 15 -9 22 -1 100
-30 96 -36 -2 -4 3 -10 12 -13 10 -4 13 -2 9 7 -4 6 1 3 9 -7 9 -11 16 -17 16
-13 0 4 27 -6 60 -23 33 -17 60 -35 60 -41 0 -5 5 -7 10 -4 6 3 10 1 10 -5 0
-6 5 -8 10 -5 6 3 10 1 10 -5 0 -6 5 -8 10 -5 6 3 10 1 10 -5 0 -6 5 -8 10 -5
6 3 10 1 10 -6 0 -7 3 -10 6 -6 9 8 64 -21 64 -34 0 -6 4 -8 9 -5 9 6 101 -59
115 -82 6 -11 12 -7 23 17 9 17 20 28 26 24 5 -3 7 -1 4 5 -9 14 3 43 14 36 5
-3 9 4 9 15 0 11 -9 22 -20 26 -27 9 -74 71 -64 86 5 8 3 9 -6 4 -10 -6 -12
-4 -7 8 3 10 2 17 -4 17 -6 0 -7 5 -4 10 3 6 2 10 -3 10 -11 0 -25 38 -22 59
1 8 -3 10 -11 5 -9 -5 -10 -2 -6 9 4 10 1 17 -5 17 -6 0 -9 3 -5 6 3 4 -1 13
-9 21 -8 9 -13 22 -10 29 3 8 1 14 -5 14 -6 0 -7 5 -4 10 3 6 2 10 -3 10 -11
0 -35 60 -24 60 4 0 1 4 -6 9 -11 6 -10 11 3 25 11 10 12 16 4 16 -7 0 -10 3
-7 6 8 8 68 -24 68 -36 0 -6 3 -9 8 -9 16 4 72 -23 66 -32 -3 -5 1 -6 8 -4 8
3 23 -2 34 -12 11 -10 26 -19 34 -21 8 -2 21 -10 28 -19 6 -9 12 -13 12 -7 0
5 10 -2 23 -16 12 -14 18 -19 12 -10 -5 8 2 5 15 -6 22 -19 65 -30 55 -14 -2
3 7 26 21 50 27 48 26 50 -33 72 -18 7 -33 16 -33 21 0 4 -4 5 -10 2 -5 -3
-10 -1 -10 5 0 6 -4 9 -9 5 -5 -3 -15 1 -23 8 -7 8 -19 12 -26 9 -6 -2 -15 3
-18 12 -3 9 -10 13 -15 10 -5 -3 -9 0 -9 6 0 6 -4 9 -10 5 -5 -3 -18 3 -29 14
-11 11 -22 17 -25 13 -3 -3 -6 0 -6 7 0 7 -4 9 -10 6 -5 -3 -10 -1 -10 4 0 6
-3 10 -7 9 -16 -4 -53 14 -48 23 3 5 0 6 -7 4 -8 -3 -24 4 -36 15 -12 11 -22
17 -22 13 0 -4 -7 2 -16 13 -8 10 -13 12 -9 4 4 -10 2 -9 -8 2 -8 10 -17 15
-20 11 -4 -3 -9 2 -13 11 -3 9 -10 14 -14 11 -4 -2 -19 6 -34 20 l-26 24 -15
-34z m152 -207 c-3 -8 -6 -5 -6 6 -1 11 2 17 5 13 3 -3 4 -12 1 -19z m35 -320
c-8 -8 -9 -4 -5 13 4 13 8 18 11 10 2 -7 -1 -18 -6 -23z"/>
<path d="M1318 2773 c6 -2 18 -2 25 0 6 3 1 5 -13 5 -14 0 -19 -2 -12 -5z"/>
<path d="M7186 2533 c-6 -14 -5 -15 5 -6 7 7 10 15 7 18 -3 3 -9 -2 -12 -12z"/>
<path d="M1560 2461 c-14 -15 -20 -20 -15 -11 6 9 -7 -2 -27 -25 -21 -22 -42
-39 -48 -37 -5 1 -10 -2 -10 -7 0 -5 -19 -24 -42 -43 -23 -18 -38 -26 -33 -18
5 8 -6 0 -24 -18 -18 -17 -37 -30 -42 -26 -5 3 -9 0 -9 -5 0 -15 -80 -72 -91
-65 -5 3 -9 0 -9 -6 0 -6 -4 -8 -10 -5 -5 3 -10 2 -10 -4 0 -6 -6 -9 -12 -7
-42 13 -69 16 -63 6 10 -16 -1 -12 -16 7 -12 15 -12 16 1 8 13 -8 13 -7 1 8
-16 20 -33 22 -30 5 2 -19 -12 -58 -21 -58 -4 0 -10 -7 -14 -15 -3 -10 9 -22
37 -39 45 -25 127 -41 127 -24 0 6 7 8 15 4 8 -3 15 0 15 6 0 6 3 9 6 5 3 -3
11 -1 18 4 38 32 137 99 131 87 -4 -7 4 1 19 17 14 17 25 26 26 21 0 -6 7 -1
15 10 8 10 15 16 15 13 0 -4 16 8 37 27 20 18 39 31 44 29 4 -3 9 2 13 10 7
20 60 19 77 -2 12 -15 12 -16 -1 -8 -8 5 0 -5 18 -22 33 -32 42 -49 20 -38 -7
4 -2 -3 12 -15 14 -12 19 -19 13 -15 -8 4 -13 0 -13 -10 0 -11 5 -15 15 -11 8
3 15 4 15 2 0 -6 -73 -51 -82 -51 -3 0 -10 -4 -15 -9 -5 -5 -2 -6 6 -1 9 5 12
4 7 -3 -4 -7 -12 -12 -18 -12 -7 0 -23 -10 -36 -22 -14 -13 -21 -16 -17 -8 5
8 -8 -2 -29 -23 -21 -21 -41 -36 -44 -33 -3 3 -12 -3 -19 -14 -8 -11 -19 -18
-24 -15 -5 4 -9 2 -9 -4 0 -5 -14 -20 -32 -32 -17 -13 -28 -16 -23 -8 4 7 -4
1 -18 -14 -15 -15 -32 -25 -37 -22 -6 3 -10 1 -10 -5 0 -6 -4 -8 -10 -5 -5 3
-10 2 -10 -4 0 -6 -11 -13 -25 -17 -29 -7 -28 -18 2 -52 13 -13 20 -28 17 -33
-6 -10 33 -20 59 -16 9 2 42 29 72 61 30 31 59 55 64 52 5 -3 12 1 15 10 4 9
9 14 12 11 4 -3 15 4 25 16 10 12 18 18 19 13 0 -4 9 2 21 15 11 13 17 17 14
9 -4 -8 5 -1 20 15 14 17 24 23 20 15 -4 -8 1 -6 10 5 9 11 21 19 26 17 5 -1
9 3 9 8 0 12 71 56 83 52 4 -1 7 3 7 9 0 5 4 8 9 5 5 -4 11 -1 13 4 2 6 12 12
22 14 30 4 30 51 0 71 -14 9 -22 20 -19 25 4 6 2 10 -4 10 -5 0 -20 14 -32 32
-13 17 -16 28 -9 23 8 -5 -2 8 -23 28 -21 21 -35 42 -32 48 4 5 2 9 -3 9 -11
0 -63 66 -66 83 -2 17 -16 37 -24 36 -4 0 -18 -13 -32 -28z m-397 -288 c-7 -2
-19 -2 -25 0 -7 3 -2 5 12 5 14 0 19 -2 13 -5z m237 -326 c0 -2 -12 -14 -27
-28 l-28 -24 24 28 c23 25 31 32 31 24z"/>
<path d="M6324 2304 c-16 -9 -37 -23 -46 -31 -10 -9 -18 -12 -18 -8 0 5 -11
-2 -25 -15 -14 -13 -23 -25 -20 -28 4 -5 -43 -72 -60 -84 -6 -5 -6 -8 0 -8 5
0 4 -5 -2 -11 -6 -6 -9 -18 -6 -27 4 -10 2 -13 -6 -8 -9 6 -10 0 -5 -20 5 -19
4 -25 -5 -20 -8 5 -11 -12 -11 -61 0 -51 3 -64 11 -53 9 12 10 11 6 -7 -3 -13
-1 -23 5 -23 6 0 8 -6 5 -14 -3 -8 -3 -16 1 -18 4 -2 20 -23 35 -48 15 -25 43
-63 63 -85 20 -22 31 -31 24 -20 -8 14 -5 12 12 -5 26 -27 35 -31 87 -38 23
-3 29 -7 20 -13 -9 -5 20 -9 71 -9 63 0 81 3 70 11 -12 9 -11 10 8 6 12 -3 22
-1 22 5 0 5 5 8 12 6 7 -3 20 3 30 11 10 9 22 16 26 15 4 0 15 9 25 20 10 12
15 14 11 6 -4 -8 6 -2 24 15 34 32 43 47 15 24 -9 -8 -4 3 12 23 17 21 34 38
38 38 5 0 5 5 2 10 -3 6 -2 10 4 10 6 0 8 6 5 14 -3 7 1 20 9 28 8 7 14 24 13
38 -1 24 -41 73 -64 76 -16 3 -35 -44 -28 -70 3 -10 -2 -33 -11 -50 -19 -39
-84 -107 -95 -100 -4 3 -8 1 -8 -5 0 -26 -159 -39 -168 -13 -2 7 -8 10 -13 6
-5 -3 -9 0 -9 6 0 6 -4 8 -10 5 -5 -3 -10 -1 -10 5 0 6 -5 8 -10 5 -6 -3 -13
1 -16 9 -3 9 -9 14 -13 11 -5 -2 -23 11 -41 30 -19 19 -30 35 -25 35 5 0 0 7
-11 16 -10 8 -13 13 -7 9 9 -4 11 -1 7 9 -3 9 -11 13 -16 10 -6 -4 -7 2 -3 16
4 12 3 20 -1 17 -5 -3 -9 26 -9 63 0 37 3 66 7 64 4 -3 5 1 2 9 -6 16 83 120
96 112 4 -3 11 2 14 11 4 9 13 14 22 10 10 -4 13 -2 8 6 -5 7 -2 9 9 5 9 -3
21 1 29 11 11 13 11 14 0 8 -9 -6 -12 -3 -10 10 2 10 -3 19 -10 19 -8 0 -19 8
-26 17 -11 15 -15 16 -42 2z m-64 -47 c0 -2 -10 -12 -22 -23 l-23 -19 19 23
c18 21 26 27 26 19z m-43 -219 c-3 -8 -6 -5 -6 6 -1 11 2 17 5 13 3 -3 4 -12
1 -19z m0 -40 c-3 -8 -6 -5 -6 6 -1 11 2 17 5 13 3 -3 4 -12 1 -19z m500 -20
c-3 -8 -6 -5 -6 6 -1 11 2 17 5 13 3 -3 4 -12 1 -19z"/>
<path d="M1924 2044 c3 -7 -3 -14 -14 -17 -11 -3 -19 -10 -18 -15 2 -6 -6 -18
-17 -27 -11 -9 -13 -13 -6 -9 23 12 -25 -52 -62 -82 -18 -14 -25 -23 -17 -19
8 3 -7 -15 -35 -41 -27 -26 -43 -44 -35 -40 8 4 -17 -23 -57 -61 -83 -80 -163
-169 -163 -184 0 -6 4 -8 9 -5 5 4 19 -6 31 -21 12 -16 18 -21 14 -13 -4 8 5
4 20 -10 15 -14 29 -25 31 -25 2 0 15 15 28 32 13 18 27 30 30 26 4 -3 13 0
22 7 8 7 21 10 30 7 8 -4 17 -1 21 4 3 6 17 8 31 4 17 -4 23 -2 18 6 -5 8 1 9
24 4 21 -4 31 -3 31 5 0 8 10 9 31 5 24 -5 30 -4 24 5 -6 10 -1 11 18 6 14 -3
29 -1 32 4 4 6 14 10 23 8 10 -1 22 1 29 5 17 10 60 -2 67 -19 3 -8 -16 -33
-47 -60 -29 -26 -43 -41 -32 -34 11 8 -26 -31 -82 -86 l-103 -100 50 -49 c41
-40 52 -46 64 -36 8 7 13 18 10 26 -3 7 5 20 18 29 12 9 18 16 13 16 -6 1 0 9
12 19 12 10 20 21 17 24 -3 2 17 24 43 47 26 24 39 37 28 30 -11 -6 7 14 40
45 33 32 53 54 45 50 -8 -5 -4 4 9 18 13 14 28 25 34 24 6 -1 11 3 12 9 0 6
24 35 54 65 30 30 50 48 46 40 -5 -9 -4 -12 3 -7 7 4 12 16 12 27 0 10 5 19
12 19 16 0 3 11 -16 14 -8 1 -32 17 -52 35 -28 26 -38 31 -47 21 -9 -10 -9
-11 3 -5 8 4 4 -4 -10 -17 -14 -14 -27 -24 -29 -22 -2 2 -10 -1 -17 -7 -8 -6
-20 -9 -29 -6 -8 4 -17 1 -21 -4 -3 -6 -17 -8 -30 -5 -15 4 -24 2 -24 -5 0 -7
-9 -9 -26 -5 -19 5 -24 3 -18 -5 5 -9 0 -10 -16 -6 -13 3 -29 2 -35 -3 -7 -5
-31 -11 -54 -14 -23 -2 -45 -6 -48 -10 -4 -3 -23 -4 -42 0 -27 4 -32 3 -21 -5
13 -9 13 -11 -2 -11 -10 0 -18 5 -18 10 0 6 -8 10 -17 10 -14 1 -11 6 12 26
17 15 23 23 15 19 -8 -3 14 22 50 56 36 34 58 59 50 54 -8 -4 14 22 50 59 63
65 91 87 54 44 l-19 -23 23 20 c37 31 46 54 25 62 -10 3 -26 15 -36 27 -10 12
-16 14 -12 6 3 -8 -6 -1 -20 15 -15 17 -25 25 -21 19z m-284 -518 c0 -2 -8
-10 -17 -17 -16 -13 -17 -12 -4 4 13 16 21 21 21 13z m280 -119 c0 -2 -12 -14
-27 -28 l-28 -24 24 28 c23 25 31 32 31 24z"/>
<path d="M5917 1867 c4 -6 0 -8 -10 -4 -10 3 -17 2 -17 -4 0 -6 -4 -7 -10 -4
-5 3 -10 1 -10 -6 0 -7 -3 -10 -6 -6 -3 3 -14 -3 -25 -14 -11 -11 -23 -18 -28
-15 -4 3 -25 -14 -47 -36 -21 -23 -32 -38 -24 -33 9 6 4 -1 -10 -14 -14 -13
-19 -20 -13 -17 9 5 11 2 7 -8 -3 -9 -10 -13 -15 -10 -5 3 -6 -3 -2 -12 4 -12
3 -15 -5 -10 -8 5 -10 2 -6 -8 3 -9 1 -16 -6 -16 -6 0 -8 -4 -5 -10 3 -5 3
-16 -1 -22 -12 -20 -13 -188 -1 -181 6 4 8 0 4 -10 -3 -10 -2 -17 4 -17 6 0 7
-4 4 -10 -3 -5 -1 -10 6 -10 7 0 10 -3 6 -6 -6 -7 20 -41 79 -101 23 -23 45
-39 48 -36 3 4 6 1 6 -6 0 -7 5 -9 10 -6 6 3 10 2 10 -4 0 -6 7 -7 17 -4 11 5
14 3 8 -6 -6 -10 -2 -11 15 -6 16 5 20 4 15 -5 -6 -9 1 -10 25 -5 23 5 30 4
26 -4 -9 -15 37 -14 89 1 22 6 43 11 48 10 4 -1 7 3 7 9 0 6 5 9 12 7 6 -2 20
4 30 14 10 10 23 16 28 13 5 -3 12 0 16 6 5 8 2 10 -7 5 -8 -4 -3 1 11 12 13
11 29 20 34 19 6 -1 10 4 11 11 0 8 9 20 19 28 11 8 16 14 12 14 -4 0 2 12 13
26 12 15 21 34 21 44 0 23 -38 70 -56 70 -8 0 -12 -4 -9 -10 3 -5 2 -10 -4
-10 -6 0 -8 -7 -5 -15 4 -9 -7 -27 -27 -47 -19 -17 -27 -28 -19 -24 8 5 0 -6
-17 -23 -18 -17 -35 -31 -38 -31 -3 0 -13 -6 -21 -15 -10 -10 -24 -13 -36 -9
-12 3 -18 2 -15 -3 3 -5 -15 -9 -43 -9 -26 1 -46 5 -42 10 3 5 -2 7 -11 3 -10
-3 -17 -2 -17 3 0 5 -7 7 -15 4 -8 -4 -27 8 -47 28 -17 18 -25 24 -18 13 15
-20 14 -20 -8 -1 -12 11 -20 21 -17 24 3 3 -4 12 -15 19 -11 8 -18 19 -15 24
4 5 2 9 -4 9 -10 0 -27 38 -23 53 1 4 -3 7 -9 7 -6 0 -8 9 -4 21 4 13 3 19 -2
16 -6 -4 -10 13 -10 38 0 27 4 42 10 38 7 -4 8 1 3 12 -7 19 13 57 48 90 12
11 15 16 6 10 -10 -6 -8 -2 4 13 20 23 32 30 20 11 -4 -7 -1 -10 7 -7 8 3 13
10 12 16 -2 6 4 9 12 6 8 -4 15 -1 15 6 0 6 4 9 9 6 5 -3 29 1 54 10 50 17 56
37 19 67 -12 10 -20 22 -18 25 2 4 -9 7 -25 8 -17 1 -26 -3 -22 -9z"/>
<path d="M1298 1778 c5 -5 16 -8 23 -6 8 3 3 7 -10 11 -17 4 -21 3 -13 -5z"/>
<path d="M2417 1614 c-3 -3 -3 -12 0 -20 3 -8 0 -14 -7 -14 -6 0 -8 -4 -5 -10
3 -5 2 -10 -4 -10 -6 0 -7 -7 -4 -17 4 -11 3 -14 -5 -9 -8 5 -10 2 -6 -8 3 -9
1 -16 -6 -16 -6 0 -8 -4 -5 -10 3 -5 1 -10 -5 -10 -6 0 -8 -4 -5 -10 3 -5 1
-10 -4 -10 -6 0 -10 -3 -9 -7 3 -11 -32 -76 -46 -85 -6 -4 -8 -8 -3 -8 12 0
-22 -60 -34 -60 -6 0 -7 -4 -4 -10 3 -5 1 -10 -5 -10 -6 0 -8 -4 -5 -10 3 -5
2 -10 -4 -10 -6 0 -15 -10 -22 -21 -8 -15 -8 -19 0 -15 6 4 2 -9 -10 -28 -12
-20 -25 -36 -31 -36 -5 0 -7 -4 -3 -9 3 -5 -5 -17 -17 -26 -13 -8 -22 -18 -21
-20 5 -10 -9 -35 -17 -30 -5 3 -7 -1 -6 -8 2 -17 43 -57 50 -50 3 4 6 1 6 -6
0 -7 5 -9 10 -6 6 3 10 2 10 -4 0 -12 29 -3 46 14 6 5 9 16 6 23 -2 6 1 12 8
12 6 0 8 5 5 10 -3 6 -1 10 5 10 6 0 8 5 5 10 -3 6 -1 10 5 10 6 0 8 5 5 10
-3 6 -1 10 5 10 6 0 8 5 5 10 -3 6 -1 10 5 10 6 0 8 5 5 10 -3 6 -1 10 5 10 6
0 8 5 5 10 -3 6 -1 10 5 10 6 0 9 4 6 9 -7 11 36 75 49 73 6 -1 11 -14 12 -30
6 -56 10 -78 17 -90 4 -7 4 -21 1 -32 -4 -12 -2 -20 4 -20 8 0 9 -14 5 -42 -6
-32 -4 -39 6 -33 11 6 12 -5 6 -59 -4 -46 -3 -66 4 -61 5 3 10 2 10 -2 0 -5 7
-18 16 -29 8 -10 13 -13 9 -7 -4 9 -1 11 9 7 9 -3 14 -9 12 -13 -3 -4 3 -7 12
-8 9 -1 27 -4 38 -8 20 -6 21 -3 20 33 0 22 -5 38 -9 35 -5 -3 -6 9 -2 27 5
24 4 31 -5 25 -9 -6 -10 1 -5 25 5 25 4 31 -5 25 -10 -6 -11 1 -6 29 5 25 3
36 -5 36 -7 0 -9 10 -6 30 4 16 2 32 -4 36 -6 3 -8 17 -5 29 3 13 2 27 -4 30
-14 8 -6 65 10 75 8 5 18 6 22 4 4 -3 8 -1 8 5 0 6 7 7 17 4 12 -5 14 -3 8 7
-6 10 -4 12 8 7 10 -3 17 -2 17 3 0 6 3 9 8 8 4 0 25 7 47 17 22 10 48 18 58
17 10 0 15 4 11 10 -5 8 -1 9 11 4 10 -4 21 -2 25 4 5 8 45 17 89 19 11 1 11
4 0 17 -12 14 -14 14 -20 -3 -4 -10 -8 -12 -8 -5 -1 16 -38 52 -45 44 -3 -3
-6 0 -6 7 0 7 -4 10 -9 6 -5 -3 -16 1 -24 10 -13 13 -17 13 -27 0 -7 -8 -16
-12 -21 -9 -5 3 -9 0 -9 -6 0 -6 -4 -8 -10 -5 -5 3 -10 2 -10 -4 0 -6 -7 -7
-17 -4 -12 5 -14 3 -8 -7 5 -8 3 -11 -6 -8 -8 3 -19 -1 -24 -9 -6 -8 -20 -15
-33 -16 -12 0 -22 -5 -22 -10 0 -5 -7 -6 -16 -3 -9 4 -13 2 -8 -5 4 -8 -1 -9
-16 -4 -15 5 -20 3 -16 -3 4 -7 -6 -9 -30 -5 -34 6 -37 4 -30 -13 5 -13 4 -16
-4 -8 -11 11 14 74 31 74 5 0 8 3 8 8 -4 21 5 36 43 74 22 22 36 38 30 35 -6
-5 -8 1 -5 14 5 16 8 18 15 7 8 -10 9 -10 5 2 -2 8 -8 15 -13 16 -17 1 -84 38
-84 46 0 9 -24 11 -33 2z"/>
<path d="M5280 1450 c-7 -4 -19 -6 -26 -3 -6 2 -15 0 -18 -6 -4 -6 -14 -7 -23
-4 -12 5 -14 3 -8 -7 5 -9 4 -11 -3 -6 -6 4 -21 -3 -32 -14 -11 -11 -26 -18
-32 -14 -7 4 -8 3 -4 -4 4 -7 4 -12 -1 -12 -13 0 -102 -88 -95 -94 3 -3 0 -6
-7 -6 -7 0 -9 -4 -6 -10 3 -5 1 -10 -5 -10 -6 0 -8 -4 -5 -10 3 -5 1 -10 -5
-10 -6 0 -8 -4 -5 -10 3 -5 3 -15 -1 -21 -6 -10 -6 -43 0 -181 0 -10 4 -18 9
-18 5 0 7 -6 5 -12 -3 -7 1 -19 9 -26 7 -8 10 -18 7 -24 -4 -6 -3 -8 2 -5 6 3
16 -3 23 -15 10 -16 10 -19 -1 -13 -22 12 45 -44 80 -66 17 -11 32 -25 32 -30
0 -6 4 -8 9 -5 13 9 42 -4 35 -15 -3 -6 5 -7 22 -3 16 4 25 3 21 -2 -3 -6 23
-10 63 -10 38 0 66 4 64 8 -3 4 8 5 23 2 18 -3 35 1 48 11 19 16 19 16 -3 5
-13 -7 -26 -10 -28 -7 -6 5 53 30 60 26 3 -2 12 5 21 16 9 11 13 14 10 7 -13
-24 27 3 65 45 l35 38 -40 -35 -41 -35 41 41 c23 23 39 47 37 54 -3 7 0 10 6
6 12 -7 23 19 16 39 -4 8 -1 15 4 15 7 0 10 33 9 88 -2 105 -29 167 -109 252
-29 30 -48 48 -44 40 4 -9 2 -8 -7 2 -8 10 -17 15 -20 11 -4 -3 -7 -1 -7 6 0
7 -4 9 -10 6 -5 -3 -10 -2 -10 4 0 6 -7 7 -17 4 -10 -4 -14 -2 -10 4 4 6 -3 8
-20 5 -17 -3 -24 -1 -19 6 7 12 -74 15 -94 2z m73 -96 c15 -3 25 -10 22 -15
-4 -5 2 -6 11 -2 12 4 15 3 10 -5 -4 -7 -2 -10 7 -6 19 7 91 -65 118 -118 16
-31 22 -62 23 -110 1 -38 -3 -68 -8 -68 -4 0 -6 -7 -2 -15 3 -8 1 -15 -5 -15
-6 0 -8 -4 -4 -9 7 -13 -54 -83 -66 -75 -5 3 -9 0 -9 -6 0 -6 -4 -8 -10 -5 -5
3 -10 1 -10 -4 0 -6 -3 -10 -7 -10 -5 1 -10 0 -13 -1 -20 -7 -118 -5 -113 3 4
6 -1 8 -12 4 -24 -10 -97 34 -130 78 -15 18 -35 57 -46 85 -20 53 -26 140 -9
140 5 0 7 7 4 15 -4 8 -1 15 6 15 6 0 8 4 5 10 -3 5 7 22 22 37 15 14 21 23
13 18 -9 -5 -12 -4 -7 1 5 5 16 9 25 9 9 0 16 6 14 13 -1 8 2 11 7 8 11 -7 61
13 61 24 0 9 67 12 103 4z"/>
<path d="M5175 960 c10 -11 20 -20 23 -20 3 0 -3 9 -13 20 -10 11 -20 20 -23
20 -3 0 3 -9 13 -20z"/>
<path d="M3154 1248 c-17 -19 -21 -27 -9 -19 11 7 -7 -12 -40 -43 -33 -31 -59
-61 -58 -66 2 -5 -19 -28 -45 -51 -26 -23 -40 -38 -32 -34 8 5 -35 -45 -96
-111 -116 -123 -173 -179 -159 -155 5 9 4 12 -3 7 -24 -14 -13 -36 18 -36 17
0 30 -4 30 -10 0 -5 7 -6 17 -3 10 4 14 2 10 -4 -5 -7 7 -10 32 -9 21 0 37 4
35 8 -7 10 25 68 36 68 6 0 9 4 8 8 -2 5 8 19 22 33 15 13 17 17 5 9 -19 -14
-19 -14 -3 5 19 20 104 32 92 13 -4 -6 2 -8 16 -3 14 4 20 3 17 -2 -4 -6 8
-10 26 -11 17 0 33 -6 35 -11 2 -6 7 -9 12 -6 5 3 20 1 34 -5 25 -9 26 -11 26
-105 0 -98 10 -127 39 -117 9 3 11 0 6 -8 -5 -9 -2 -10 14 -5 11 3 21 2 21 -3
0 -5 11 -7 24 -5 24 5 42 38 25 48 -4 3 -5 13 -2 22 4 11 3 14 -5 9 -8 -5 -10
2 -5 25 5 24 3 30 -7 24 -9 -6 -11 0 -5 24 4 20 3 31 -4 31 -6 0 -11 12 -11
28 -1 47 -7 92 -14 99 -3 4 -4 23 0 42 4 28 3 33 -5 21 -9 -11 -10 -1 -6 40 4
41 3 50 -5 35 -8 -16 -9 -11 -5 23 3 25 1 42 -5 42 -6 0 -10 12 -11 28 0 26
-4 86 -7 125 -1 9 -5 16 -9 16 -20 -3 -26 2 -13 11 8 5 10 10 4 10 -5 0 -23
-14 -40 -32z m-64 -91 c0 -2 -10 -12 -22 -23 l-23 -19 19 23 c18 21 26 27 26
19z m45 -87 c-3 -5 -1 -11 5 -15 5 -3 7 -17 4 -31 -4 -14 -2 -24 4 -24 6 0 10
-16 9 -36 l-2 -36 -44 5 c-27 3 -38 2 -30 -4 23 -15 0 -10 -31 6 -17 9 -30 20
-30 25 0 5 24 33 52 62 29 29 44 46 33 38 -20 -14 -20 -14 -1 7 17 21 43 23
31 3z m-2 -157 c-7 -2 -19 -2 -25 0 -7 3 -2 5 12 5 14 0 19 -2 13 -5z"/>
<path d="M3030 961 c0 -5 7 -12 16 -15 14 -5 15 -4 4 9 -14 17 -20 19 -20 6z"/>
<path d="M2360 1245 c-10 -12 -10 -15 4 -15 9 0 16 7 16 15 0 8 -2 15 -4 15
-2 0 -9 -7 -16 -15z"/>
<path d="M4612 1220 c-12 -5 -30 -6 -39 -3 -11 5 -14 3 -8 -6 6 -10 0 -12 -26
-6 -27 5 -31 4 -19 -5 12 -9 9 -10 -13 -5 -19 4 -26 2 -22 -5 3 -5 1 -10 -5
-10 -13 0 -10 -52 3 -61 5 -4 10 -18 10 -33 1 -14 6 -26 10 -26 5 0 5 -10 2
-21 -5 -15 -4 -19 4 -15 7 5 12 -3 12 -21 1 -15 3 -37 4 -48 1 -11 2 -31 3
-45 2 -20 4 -22 13 -10 8 12 9 8 8 -15 -1 -16 2 -38 6 -49 5 -10 9 -37 10 -60
3 -63 4 -68 16 -60 9 5 10 -4 5 -31 -5 -27 -4 -35 4 -30 9 6 10 -4 5 -35 -6
-33 -4 -41 6 -35 8 6 11 4 7 -7 -5 -13 0 -14 35 -8 22 5 47 5 55 2 11 -4 13
-1 7 8 -6 10 -4 12 8 7 12 -4 14 -1 10 16 -3 12 -6 30 -6 40 -1 9 -5 17 -10
17 -4 0 -5 5 -2 10 3 6 1 10 -5 10 -7 0 -10 7 -6 15 3 8 1 15 -5 15 -6 0 -8 9
-4 20 4 11 2 20 -4 20 -6 0 -11 16 -11 35 0 19 5 35 10 35 6 0 9 6 8 13 -2 6
5 11 15 11 9 -1 17 3 17 8 0 6 7 8 15 4 8 -3 15 -1 15 5 0 6 5 7 10 4 6 -3 10
-2 10 3 0 5 12 15 28 23 33 17 56 38 58 53 0 6 2 25 3 41 2 26 4 27 10 10 8
-19 9 -18 12 5 2 14 2 38 0 55 -4 27 -5 28 -13 10 -6 -16 -7 -13 -5 13 2 17
-1 32 -6 32 -5 0 -6 7 -3 16 3 9 2 12 -5 9 -6 -4 -9 0 -7 8 2 9 0 15 -3 14
-12 -4 -38 26 -32 37 3 6 3 8 -1 4 -4 -3 -26 2 -49 13 -45 20 -107 24 -145 9z
m51 -67 c-7 -2 -19 -2 -25 0 -7 3 -2 5 12 5 14 0 19 -2 13 -5z m74 -39 c13
-16 21 -35 18 -41 -2 -7 0 -13 5 -13 6 0 10 -18 10 -41 0 -27 -4 -38 -11 -33
-8 4 -9 -1 -4 -16 5 -17 4 -21 -6 -15 -9 6 -11 4 -6 -8 3 -9 -1 -21 -11 -29
-16 -12 -16 -11 -3 7 8 11 2 8 -12 -7 -18 -18 -33 -25 -44 -21 -12 5 -14 3 -8
-7 5 -9 4 -11 -4 -6 -6 4 -9 11 -6 16 3 4 0 10 -5 12 -6 2 -12 16 -14 31 -1
15 -6 30 -9 34 -4 3 -4 18 -1 32 5 21 3 23 -6 11 -9 -12 -10 -9 -5 13 4 20 2
27 -5 22 -8 -5 -10 7 -6 41 4 34 3 43 -3 29 -7 -15 -10 -16 -10 -4 -1 23 3 25
65 23 51 -1 61 -5 81 -30z m-160 -366 c-3 -8 -6 -5 -6 6 -1 11 2 17 5 13 3 -3
4 -12 1 -19z"/>
<path d="M3773 1148 c7 -4 -2 -8 -20 -8 -17 0 -35 -5 -38 -10 -4 -6 -9 -9 -13
-7 -4 1 -20 -11 -37 -27 -16 -16 -23 -26 -15 -22 9 5 8 2 -2 -7 -10 -8 -15
-17 -11 -20 3 -4 2 -7 -4 -7 -6 0 -9 -9 -5 -22 3 -14 2 -19 -6 -14 -8 5 -12
-4 -12 -28 0 -20 5 -36 11 -36 6 0 9 -6 7 -12 -5 -15 4 -28 51 -74 48 -47 38
-71 -67 -171 -47 -46 -82 -83 -77 -83 5 0 -2 -11 -15 -25 -17 -18 -19 -25 -9
-26 8 0 6 -4 -6 -9 -14 -6 -4 -9 37 -9 31 -1 58 2 60 7 2 4 21 23 43 42 27 24
34 27 20 10 -10 -14 12 7 50 45 39 39 69 73 68 76 -1 3 13 21 32 39 30 29 35
31 41 16 4 -9 4 -20 0 -23 -3 -4 -6 1 -6 11 0 9 -4 15 -8 12 -5 -3 -6 -27 -1
-53 8 -53 1 -145 -11 -138 -4 3 -11 -2 -14 -11 -3 -8 -2 -13 3 -10 5 3 12 -5
15 -19 4 -17 11 -22 22 -18 9 3 20 0 24 -7 6 -10 16 -11 42 -4 l33 10 -2 120
c-2 85 0 113 7 99 8 -14 9 2 6 60 -3 44 -1 112 5 150 5 39 10 85 9 103 0 23 4
31 12 26 8 -5 9 0 5 17 -4 13 -7 29 -7 36 0 6 -10 14 -22 16 l-23 4 23 2 c15
1 26 -7 32 -21 l9 -23 0 22 c1 12 -6 24 -16 27 -27 8 -233 2 -220 -6z m91 -90
c4 -7 4 -3 2 10 -2 12 -1 22 3 22 4 0 8 -28 8 -62 0 -41 -2 -56 -7 -43 -5 12
-8 -8 -7 -51 2 -74 -12 -108 -39 -97 -7 3 -11 9 -8 14 3 5 -2 6 -10 3 -23 -9
-66 65 -71 120 -3 40 0 48 22 66 15 11 37 23 50 26 12 4 20 11 17 16 -4 6 2 5
14 -1 11 -6 23 -16 26 -23z m-274 -411 c0 -2 -12 -14 -27 -28 l-28 -24 24 28
c23 25 31 32 31 24z"/>
</g>
</svg>
